<svg id="_1st-place-medal" data-name="1st-place-medal" xmlns="http://www.w3.org/2000/svg" xmlns:xlink="http://www.w3.org/1999/xlink" width="44" height="44" viewBox="0 0 44 44">
  <defs>
    <clipPath id="clip-path">
      <path id="Path_970" data-name="Path 970" d="M0,0H44V44H0Z"/>
    </clipPath>
  </defs>
  <g id="_1st-place-medal-2" data-name="1st-place-medal" clip-path="url(#clip-path)">
    <path id="Path_963" data-name="Path 963" d="M13.745,21.251h8.793L33.53,0H24.738Z" transform="translate(3.054)" fill="#006ca2"/>
    <path id="Path_964" data-name="Path 964" d="M19.041,8.693l-4.4,8.5,1.1,2.124h6.593l1.1-2.124Z" transform="translate(3.254 1.932)" fill="#2f2f2f"/>
    <path id="Path_965" data-name="Path 965" d="M23.515,22.918H14.721V17.786h8.794v5.132Zm0-7.328H14.721a2.2,2.2,0,0,0-2.2,2.2v5.128a2.2,2.2,0,0,0,2.2,2.2h8.794a2.2,2.2,0,0,0,2.2-2.2V17.786a2.2,2.2,0,0,0-2.2-2.2" transform="translate(2.782 3.464)" fill="#fcc21b"/>
    <path id="Path_966" data-name="Path 966" d="M30.908,28.979A10.993,10.993,0,1,1,19.915,17.986,10.993,10.993,0,0,1,30.908,28.979" transform="translate(1.982 3.997)" fill="#fcc21b"/>
    <path id="Path_967" data-name="Path 967" d="M12.083,25.9a1.028,1.028,0,0,1-.427-.089,1.08,1.08,0,0,1-.577-1.375.062.062,0,0,0,.007-.024c0-.017.007-.013.013-.027a7.846,7.846,0,0,1,5.458-4.6.269.269,0,0,1,.226.474,12.382,12.382,0,0,0-3.706,4.974.013.013,0,0,1,0,.007,0,0,0,0,1,0,0,1.054,1.054,0,0,1-.592.574,1.008,1.008,0,0,1-.4.079" transform="translate(2.446 4.397)" fill="#fff"/>
    <path id="Path_968" data-name="Path 968" d="M25.139,21.251h-8.8L5.352,0h8.793Z" transform="translate(1.189)" fill="#006ca2"/>
    <path id="Path_969" data-name="Path 969" d="M16.208,25.7l1.021-.292v5.606h-.787a.151.151,0,0,0-.152.152v1.918a.15.15,0,0,0,.152.152h4.074a.152.152,0,0,0,.152-.152V31.167a.152.152,0,0,0-.152-.152h-.787V22.8a.146.146,0,0,0-.059-.117.153.153,0,0,0-.127-.031l-3.41.732a.154.154,0,0,0-.12.148v2.022a.149.149,0,0,0,.059.12.188.188,0,0,0,.138.024" transform="translate(3.558 5.034)" fill="#f79329"/>
  </g>
</svg>
