<svg id="apple-pay" xmlns="http://www.w3.org/2000/svg" width="67.188" height="28.289" viewBox="0 0 67.188 28.289">
  <path id="Path_1237" data-name="Path 1237" d="M12.719,3.647A5.054,5.054,0,0,0,13.892,0a5.327,5.327,0,0,0-3.406,1.713A4.773,4.773,0,0,0,9.258,5.194a4.028,4.028,0,0,0,3.462-1.547m1.173,1.879c-1.9-.111-3.518,1.05-4.411,1.05s-2.289-.995-3.8-.995A5.61,5.61,0,0,0,.938,8.454c-2.01,3.481-.558,8.619,1.452,11.437.949,1.381,2.122,2.928,3.629,2.873,1.452-.055,2.01-.939,3.741-.939s2.234.939,3.8.884,2.569-1.381,3.518-2.818a11.073,11.073,0,0,0,1.563-3.2,4.982,4.982,0,0,1-.614-8.9,5.216,5.216,0,0,0-4.132-2.265" transform="translate(0.026)"/>
  <g id="Group_88" data-name="Group 88" transform="translate(22.406 1.602)">
    <path id="Path_1238" data-name="Path 1238" d="M48.029,2.9a6.605,6.605,0,0,1,6.98,6.851c0,4.089-2.9,6.907-7.091,6.907H43.394v7.128H40.1V2.9ZM43.394,13.951h3.741c2.848,0,4.467-1.547,4.467-4.144,0-2.652-1.619-4.144-4.467-4.144h-3.8v8.288Zm12.452,5.581c0-2.652,2.066-4.31,5.751-4.531l4.244-.221v-1.16c0-1.713-1.173-2.707-3.071-2.707-1.843,0-2.959.884-3.239,2.21H56.516c.168-2.763,2.569-4.807,6.366-4.807,3.741,0,6.142,1.934,6.142,5.028v10.5H66.009V21.354h-.056A5.482,5.482,0,0,1,61.1,24.117C57.968,24.117,55.846,22.238,55.846,19.531Zm10-1.381V16.934l-3.8.221c-1.9.111-2.959.939-2.959,2.265s1.117,2.21,2.792,2.21A3.676,3.676,0,0,0,65.841,18.15Zm5.975,11.327V26.935a6.133,6.133,0,0,0,1.005.055c1.452,0,2.234-.608,2.736-2.155,0-.055.279-.939.279-.939L70.253,8.646h3.406l3.909,12.432h.056L81.532,8.646h3.35L79.131,24.725c-1.34,3.7-2.848,4.862-6.031,4.862C72.877,29.532,72.1,29.532,71.816,29.477Z" transform="translate(-40.1 -2.9)"/>
  </g>
</svg>
