<svg xmlns="http://www.w3.org/2000/svg" xmlns:xlink="http://www.w3.org/1999/xlink" viewBox="0 0 473 188" style="enable-background:new 0 0 473 188"><style>.st0{fill:#fff}.st1{fill:#1ed250}.st2{fill:#909092}.st3{fill:#fae12f}.st4{display:none}.st5{display:inline}.st6{fill:none;stroke:#fff;stroke-width:1.5;stroke-miterlimit:10;stroke-dasharray:11.767,7.8447}.st7{display:inline;fill:#c92921}.st8{fill:#c92921}</style><g id="BG"/><g id="BET_text"><g><path class="st0" d="M10.45 36.95h64.41c22.24.0 27.97 13.43 27.97 27.48.0 15.74-8.19 20.07-13.24 23 7.51 2.47 17.74 8.95 17.74 27.32.0 12.35-6.96 32.42-33.16 32.42H10.45V36.95zM30.92 81.71h38.21c5.73.0 13.24-1.7 13.24-14.05.0-9.26-4.78-13.43-16.78-13.43H30.92V81.71zM30.92 129.87h36.71c9.28.0 18.42-2.01 18.42-16.21.0-10.34-6.14-15.59-15.42-15.59H30.92V129.87z"/><path class="st0" d="M124.13 36.95h84.6v17.29H144.6v27.78h61.54v17.29H144.6v30.56h65.23v17.29h-85.7V36.95z"/></g><g><path class="st0" d="M267.4 54.24h-36.57V36.95h93.61v17.29h-36.57v92.92H267.4V54.24z"/></g></g><g id="V2"><g id="card_symbols_copy"><path id="diamonds_1_" class="st1" d="M362.31 88.79 368.65 96.44 375.27 88.69 368.6 81z"/><g id="hearts_1_"><path class="st1" d="M426.68 95.15c0 0-4.94-3.81-5.61-5.9s.19-3.61.19-3.61 1.79-3.39 5.42-.77"/><path class="st1" d="M426.68 95.19c0 0 4.94-3.81 5.61-5.9.68-2.1-.19-3.61-.19-3.61s-1.79-3.39-5.42-.77"/></g><path id="clubs_2_" class="st2" d="M414.69 95.89c-2.75-1.21-5.32-1.24-7.66-.7 1.9-2.14 3-4.95 2.83-8.01-.33-5.83-5.43-10.6-11.56-10.82-6.87-.25-12.52 4.97-12.52 11.44.0 2.81 1.07 5.39 2.84 7.38-2.34-.54-4.9-.51-7.66.7-4.23 1.87-7.18 5.83-7.24 10.26-.09 6.39 5.34 11.6 12.05 11.6 3.24.0 6.18-1.22 8.34-3.2v3.37c0 1.62-.44 6.09-1.29 7.5l-1.63 2.7c-.35.59.09 1.32.8 1.32h11.64c.71.0 1.16-.73.8-1.32l-1.63-2.7c-.84-1.41-1.29-5.88-1.29-7.5v-3.37c2.17 1.98 5.1 3.2 8.34 3.2 6.71.0 12.14-5.21 12.05-11.6C421.87 101.72 418.92 97.76 414.69 95.89"/><path id="spades_1_" class="st3" d="M403.41 62.94c-.81-1.43-2.46-3.48-5.54-5.37-.02-.01-.06-.01-.08.0-3.08 1.9-4.74 3.89-5.54 5.31-.95 1.68-.41 3.7 1.32 4.56.45.22.78.25 1.17.25.0.0.1.0.25-.03.69-.1 1.33-.44 1.82-.94l.07-.07c.1-.1.28-.02.26.12-.07.79-.22 1.97-.82 2.72-.18.23-.03.57.26.57h2.49c.29.0.44-.34.26-.57-.61-.76-.75-1.96-.82-2.75-.01-.12.14-.19.22-.1v0c.43.47.99.82 1.6.98.34.09.59.11.59.11.39.0.72-.03 1.17-.25C403.82 66.64 404.36 64.61 403.41 62.94z"/></g><g id="ring-inner-dashed_copy" class="st4"><g class="st5"><ellipse transform="matrix(0.7071 -0.7071 0.7071 0.7071 50.7884 308.3561)" class="st6" cx="397.61" cy="92.87" rx="43.71" ry="43.71"/></g></g><g id="ring_inner_copy" class="st4"><path class="st7" d="M397.58 45.55c-26.19.0-47.42 21.23-47.42 47.42.0 26.19 21.23 47.42 47.42 47.42 26.19.0 47.42-21.23 47.42-47.42C445 66.78 423.77 45.55 397.58 45.55zm0 91.74c-24.48.0-44.32-19.84-44.32-44.32.0-24.48 19.84-44.32 44.32-44.32 24.48.0 44.32 19.84 44.32 44.32C441.9 117.45 422.06 137.29 397.58 137.29z"/></g><g id="ring_big_copy"><path class="st8" d="M397.58 22.13c-39.12.0-70.84 31.72-70.84 70.84.0 39.12 31.72 70.84 70.84 70.84 39.12.0 70.84-31.72 70.84-70.84C468.42 53.84 436.7 22.13 397.58 22.13zM397.58 142.39c-27.69.0-50.13-22.13-50.13-49.43.0-27.3 22.44-49.43 50.13-49.43 27.69.0 50.13 22.13 50.13 49.43C447.71 120.26 425.27 142.39 397.58 142.39z"/></g><g id="white_ring_overlay_copy"><g id="white_parts_1_"><path class="st0" d="M410.94 45.33c4.14 1.13 8.07 2.76 11.7 4.84l15.38-15.35c-7.99-5.56-17.17-9.52-27.09-11.42V45.33z"/><path class="st0" d="M372.97 49.91c3.74-2.08 7.77-3.71 12.03-4.8V23.27c-10.05 1.8-19.36 5.71-27.46 11.27L372.97 49.91z"/><path class="st0" d="M456.25 53.27l-15.18 15.14c2.1 3.6 3.75 7.49 4.88 11.59l21.25-.06C465.39 70.21 461.61 61.16 456.25 53.27z"/><path class="st0" d="M349.13 80.28c1.18-4.37 2.95-8.51 5.22-12.32l-15.15-15.1c-5.58 8.1-9.5 17.42-11.31 27.48L349.13 80.28z"
				/><path class="st0" d="M445.95 105.94c-1.14 4.16-2.83 8.1-4.97 11.75l15.17 15.12c5.43-7.96 9.26-17.09 11.07-26.93L445.95 105.94z"/><path class="st0" d="M354.47 118.18c-2.23-3.7-3.99-7.72-5.18-11.97l-21.28.06c1.88 9.88 5.81 19.04 11.33 27L354.47 118.18z"
				/><path class="st0" d="M422.48 135.86c-3.59 2.03-7.46 3.64-11.54 4.75v21.93c9.86-1.88 19-5.81 26.95-11.32L422.48 135.86z"/><path class="st0" d="M385 140.82c-4.17-1.06-8.13-2.65-11.81-4.68l-15.44 15.4c8.05 5.48 17.29 9.34 27.25 11.12V140.82z"/></g></g><g id="ring_copy"><path class="st8" d="M397.58 38.58c-30.04.0-54.39 24.35-54.39 54.39.0 30.04 24.35 54.39 54.39 54.39 30.04.0 54.39-24.35 54.39-54.39C451.97 62.93 427.62 38.58 397.58 38.58zM397.58 142.36c-27.28.0-49.39-22.11-49.39-49.39.0-27.28 22.11-49.39 49.39-49.39 27.28.0 49.39 22.11 49.39 49.39C446.97 120.24 424.86 142.36 397.58 142.36z"/></g></g><g id="V1"><g id="card_symbols"><path id="diamonds" class="st1" d="M362.31 88.79 368.65 96.44 375.27 88.69 368.6 81z"/><g id="hearts"><path class="st1" d="M426.68 95.15c0 0-4.94-3.81-5.61-5.9s.19-3.61.19-3.61 1.79-3.39 5.42-.77"/><path class="st1" d="M426.68 95.19c0 0 4.94-3.81 5.61-5.9.68-2.1-.19-3.61-.19-3.61s-1.79-3.39-5.42-.77"/></g><path id="clubs_1_" class="st2" d="M414.69 95.89c-2.75-1.21-5.32-1.24-7.66-.7 1.9-2.14 3-4.95 2.83-8.01-.33-5.83-5.43-10.6-11.56-10.82-6.87-.25-12.52 4.97-12.52 11.44.0 2.81 1.07 5.39 2.84 7.38-2.34-.54-4.9-.51-7.66.7-4.23 1.87-7.18 5.83-7.24 10.26-.09 6.39 5.34 11.6 12.05 11.6 3.24.0 6.18-1.22 8.34-3.2v3.37c0 1.62-.44 6.09-1.29 7.5l-1.63 2.7c-.35.59.09 1.32.8 1.32h11.64c.71.0 1.16-.73.8-1.32l-1.63-2.7c-.84-1.41-1.29-5.88-1.29-7.5v-3.37c2.17 1.98 5.1 3.2 8.34 3.2 6.71.0 12.14-5.21 12.05-11.6C421.87 101.72 418.92 97.76 414.69 95.89"/><path id="spades" class="st3" d="M403.41 62.94c-.81-1.43-2.46-3.48-5.54-5.37-.02-.01-.06-.01-.08.0-3.08 1.9-4.74 3.89-5.54 5.31-.95 1.68-.41 3.7 1.32 4.56.45.22.78.25 1.17.25.0.0.1.0.25-.03.69-.1 1.33-.44 1.82-.94l.07-.07c.1-.1.28-.02.26.12-.07.79-.22 1.97-.82 2.72-.18.23-.03.57.26.57h2.49c.29.0.44-.34.26-.57-.61-.76-.75-1.96-.82-2.75-.01-.12.14-.19.22-.1v0c.43.47.99.82 1.6.98.34.09.59.11.59.11.39.0.72-.03 1.17-.25C403.82 66.64 404.36 64.61 403.41 62.94z"/></g><g id="ring-inner-dashed"/><g id="ring_inner"><path class="st8" d="M397.58 45.55c-26.19.0-47.42 21.23-47.42 47.42.0 26.19 21.23 47.42 47.42 47.42 26.19.0 47.42-21.23 47.42-47.42C445 66.78 423.77 45.55 397.58 45.55zm0 91.74c-24.48.0-44.32-19.84-44.32-44.32.0-24.48 19.84-44.32 44.32-44.32 24.48.0 44.32 19.84 44.32 44.32C441.9 117.45 422.06 137.29 397.58 137.29z"/></g><g id="ring_big"><path class="st8" d="M397.58 22.13c-39.12.0-70.84 31.72-70.84 70.84.0 39.12 31.72 70.84 70.84 70.84 39.12.0 70.84-31.72 70.84-70.84C468.42 53.84 436.7 22.13 397.58 22.13zM397.58 142.39c-27.69.0-50.13-22.13-50.13-49.43.0-27.3 22.44-49.43 50.13-49.43 27.69.0 50.13 22.13 50.13 49.43C447.71 120.26 425.27 142.39 397.58 142.39z"/></g><g id="white_ring_overlay"><g id="white_parts"><path class="st0" d="M410.94 45.33c4.14 1.13 8.07 2.76 11.7 4.84l15.38-15.35c-7.99-5.56-17.17-9.52-27.09-11.42V45.33z"/><path class="st0" d="M372.97 49.91c3.74-2.08 7.77-3.71 12.03-4.8V23.27c-10.05 1.8-19.36 5.71-27.46 11.27L372.97 49.91z"/><path class="st0" d="M456.25 53.27l-15.18 15.14c2.1 3.6 3.75 7.49 4.88 11.59l21.25-.06C465.39 70.21 461.61 61.16 456.25 53.27z"/><path class="st0" d="M349.13 80.28c1.18-4.37 2.95-8.51 5.22-12.32l-15.15-15.1c-5.58 8.1-9.5 17.42-11.31 27.48L349.13 80.28z"
				/><path class="st0" d="M445.95 105.94c-1.14 4.16-2.83 8.1-4.97 11.75l15.17 15.12c5.43-7.96 9.26-17.09 11.07-26.93L445.95 105.94z"/><path class="st0" d="M354.47 118.18c-2.23-3.7-3.99-7.72-5.18-11.97l-21.28.06c1.88 9.88 5.81 19.04 11.33 27L354.47 118.18z"
				/><path class="st0" d="M422.48 135.86c-3.59 2.03-7.46 3.64-11.54 4.75v21.93c9.86-1.88 19-5.81 26.95-11.32L422.48 135.86z"/><path class="st0" d="M385 140.82c-4.17-1.06-8.13-2.65-11.81-4.68l-15.44 15.4c8.05 5.48 17.29 9.34 27.25 11.12V140.82z"/></g></g><g id="ring"><path class="st8" d="M397.58 38.58c-30.04.0-54.39 24.35-54.39 54.39.0 30.04 24.35 54.39 54.39 54.39 30.04.0 54.39-24.35 54.39-54.39C451.97 62.93 427.62 38.58 397.58 38.58zM397.58 142.36c-27.28.0-49.39-22.11-49.39-49.39.0-27.28 22.11-49.39 49.39-49.39 27.28.0 49.39 22.11 49.39 49.39C446.97 120.24 424.86 142.36 397.58 142.36z"/></g></g></svg>