<svg id="Group_573" data-name="Group 573" xmlns="http://www.w3.org/2000/svg" xmlns:xlink="http://www.w3.org/1999/xlink" width="104.284" height="103.89" viewBox="0 0 104.284 103.89">
  <defs>
    <linearGradient id="linear-gradient" x1="0.671" y1="1" x2="0.329" gradientUnits="objectBoundingBox">
      <stop offset="0" stop-color="#890f3d"/>
      <stop offset="0.36" stop-color="#e14eff"/>
      <stop offset="0.54" stop-color="#5899ff"/>
      <stop offset="1" stop-color="#050451"/>
    </linearGradient>
  </defs>
  <g id="Group_98" data-name="Group 98">
    <rect id="card-desktop-bg" width="104.284" height="103.89" rx="12" fill="#fffa63"/>
  </g>
  <path id="playojo-logo" d="M128.239,56.933A12.6,12.6,0,0,0,127,56.5c-4.9-1.435-10.7.194-13.5,4.686-2.487,3.986-2.346,9.186-.528,13.4,2.982,6.917,12.056,10.018,18.052,7.364a11.011,11.011,0,0,0,3.264-2.183C141.088,73.091,136.2,60.154,128.239,56.933ZM123.139,73a6.009,6.009,0,0,1-2-2.7,4.083,4.083,0,0,1,.464-4.053,3.466,3.466,0,0,1,5.241-.155,5.99,5.99,0,0,1,1.772,3.228c.543,3.271-2.661,5.758-5.478,3.68Zm-37.3-.316a13.977,13.977,0,0,0-.328-1.363A18.07,18.07,0,0,0,80.538,63.7a13.759,13.759,0,0,0-6.073-3.809C65.494,57.66,58.12,68.436,60.492,76.4l.077.251c1.16,3.637,3.017,7.2,6.47,9.036C76.258,90.6,87.785,83.153,85.839,72.685ZM75.168,77.811a3.468,3.468,0,0,1-5.076-1.317,5.989,5.989,0,0,1-.8-3.6c.4-3.29,4.168-4.782,6.291-2a6.011,6.011,0,0,1,1.162,3.149A4.088,4.088,0,0,1,75.168,77.811Zm37.926,3.438c2.2,5.1-2.04,11.319-5.93,14.418-3.96,3.149-8.84,6.076-14.071,5.966a7.591,7.591,0,0,1-5.54-2.384A10.148,10.148,0,0,1,85.836,96.6c-1.447-3-1.229-6.346,2-8,2.3-1.176,4.911-1.4,7.29-2.338,1.841-.722,3.481-2.047,2.989-4.23-.607-2.671-2.7-5.332-4.261-7.534-1.8-2.542-3.73-4.99-5.392-7.627-2.367-3.749-3.888-8.483,1.023-10.922a8.847,8.847,0,0,1,3.092-.966c3.933-.361,6.542,3.735,8.639,6.432a65.228,65.228,0,0,1,4.493,6.91c2.5,4.23,5.444,8.428,7.386,12.935ZM70.988,52.043l10.977,6.905a.715.715,0,0,0,.385.112c.428,0,.88-.375,1.344-1.112.732-1.164-.093-1.686-1.138-2.343l-.925-.581a3.029,3.029,0,0,0,.76-.818,5.1,5.1,0,0,0,.292-5.019,9.3,9.3,0,0,0-3.553-3.871,5.341,5.341,0,0,0-2.8-.932,3.168,3.168,0,0,0-2.771,1.595A4.629,4.629,0,0,0,72.834,49a4.821,4.821,0,0,0,.155.772,2.092,2.092,0,0,0-.885-.246,1.191,1.191,0,0,0-1.023.653,2.664,2.664,0,0,0-.445,1.066.77.77,0,0,0,.354.8Zm4.629-3.9a.779.779,0,0,1,.705-.409,2.865,2.865,0,0,1,1.394.538,6.044,6.044,0,0,1,2.236,2.317A2.182,2.182,0,0,1,80,52.744a.832.832,0,0,1-.751.469,2.391,2.391,0,0,1-1.141-.4l-.34-.213C75.839,51.324,74.871,49.322,75.617,48.139Zm4.416-10.587c-.088-.253-.079-.634.481-1.021a3.79,3.79,0,0,1,.849-.416,1.894,1.894,0,0,1,.624-.124c.827,0,1.112.806,1.442,1.741l3.515,9.961c.057.163.148.356.265.356a.4.4,0,0,0,.127-.029,1.719,1.719,0,0,0,.373-.177l.06-.041a1.37,1.37,0,0,1,.3-.17.626.626,0,0,1,.21-.038c.555,0,.885.715,1.155,1.485.206.579-.493,1.2-1.913,1.7A3.479,3.479,0,0,1,86.36,51c-1.078,0-1.827-.7-2.358-2.2ZM92.84,49.609a5,5,0,0,0,.7.048,4.591,4.591,0,0,0,2.314-.6,1.476,1.476,0,0,0,1.4,1.184,4.237,4.237,0,0,0,.581.043,1.365,1.365,0,0,0,1.107-.375.772.772,0,0,0,.1-.789,7.627,7.627,0,0,1,.127-1.65L99.807,43a4.022,4.022,0,0,0-1.035-3.787,5.757,5.757,0,0,0-3.008-1.162,15.418,15.418,0,0,0-2.164-.16,9.05,9.05,0,0,0-1.315.081.893.893,0,0,0-.842.854c-.062.442-.2,1.9.686,2.025a.9.9,0,0,0,.129.01,2.5,2.5,0,0,0,.258-.019l.151-.012c.3-.024.638-.048,1.052-.048a9.75,9.75,0,0,1,1.392.1c1.547.222,1.745.677,1.614,1.609l-.024.158-.11-.024c-.447-.1-1-.23-1.559-.311a7.543,7.543,0,0,0-1.062-.077c-2.348,0-3.873,1.239-4.18,3.4a3.893,3.893,0,0,0,.3,2.3A3.383,3.383,0,0,0,92.84,49.609Zm.086-3.587c.108-.746.779-1.191,1.8-1.191a4.049,4.049,0,0,1,.567.041,10.143,10.143,0,0,1,1.038.213,3.259,3.259,0,0,1-.818,1.372,2.128,2.128,0,0,1-1.475.689,1.786,1.786,0,0,1-.251-.019,1.052,1.052,0,0,1-.705-.359.961.961,0,0,1-.155-.748Zm7.293,5.7a.558.558,0,0,1,.143.022,2.927,2.927,0,0,1,.328.132l.184.086a11.437,11.437,0,0,0,1.765.7,5.32,5.32,0,0,0,1.4.215,2.415,2.415,0,0,0,2.111-1.1,4.194,4.194,0,0,1-1.815.421,3.917,3.917,0,0,1-1.035-.139c-2.095-.574-2.867-2.286-2.171-4.823l1.774-6.465a.844.844,0,0,1,.93-.6,3.451,3.451,0,0,1,.878.146c1.463.4,1.129,1.628.741,3.049l-1.176,4.289c-.368,1.339,0,1.564.418,1.676a1.4,1.4,0,0,0,.371.05c1.219,0,2.511-1.5,3.077-3.563l.921-3.362a.844.844,0,0,1,.93-.6,3.452,3.452,0,0,1,.878.146c1.447.4,1.174,1.394.722,3.044l-1.468,5.356c-.976,3.558-2.888,5.361-5.691,5.361a8.28,8.28,0,0,1-2.173-.316,10.328,10.328,0,0,1-2.869-1.131.887.887,0,0,1-.308-1.093c.1-.351.464-1.5,1.133-1.5Z" transform="translate(-46.634 -16.868)" fill-rule="evenodd" fill="url(#linear-gradient)"/>
</svg>
