<svg id="Group_574" data-name="Group 574" xmlns="http://www.w3.org/2000/svg" width="104.284" height="103.89" viewBox="0 0 104.284 103.89">
  <g id="Group_98" data-name="Group 98">
    <rect id="card-desktop-bg" width="104.284" height="103.89" rx="12" fill="#ffa763"/>
  </g>
  <g id="logo-mr-green" transform="translate(5 13.589)">
    <path id="Path_1" data-name="Path 1" d="M105.579,26.5c-.63-1.134-1.26-2.269-1.933-3.361-.21-.336-.21-.5.168-.714,1.176-.63,2.311-1.3,3.445-1.975.252-.168.42-.168.588.126.126.252.294.5.42.756.042.084.084.252.21.252.168-.042.126-.21.126-.336a4.41,4.41,0,0,1,1.3-2.731,7.28,7.28,0,0,1,6.344-2.1,5.238,5.238,0,0,1,3.4,2.227,17.531,17.531,0,0,1,1.218,1.849c1.512,2.815,3.025,5.63,4.579,8.445.21.378.168.588-.21.8-1.218.672-2.395,1.344-3.571,2.1-.42.252-.546.126-.756-.21-1.512-2.6-3.025-5.252-4.537-7.857a6.44,6.44,0,0,0-1.218-1.6,2.176,2.176,0,0,0-2.185-.42,2.814,2.814,0,0,0-1.807,4.285c1.05,1.975,2.227,3.907,3.361,5.84.5.924,1.05,1.807,1.6,2.731.168.294.126.462-.168.63-1.26.714-2.521,1.428-3.739,2.185-.294.168-.462.168-.63-.168-.588-1.092-1.218-2.185-1.849-3.235-.084-.126-.126-.336-.252-.294s-.084.252-.084.42a10.237,10.237,0,0,1-.882,4.327,8.372,8.372,0,0,1-6.806,5.042,8.781,8.781,0,0,1-6.386-1.386c-.126-.084-.252-.252-.378-.126-.126.084-.084.294-.042.42a10.139,10.139,0,0,1-.84,4.453,8.35,8.35,0,0,1-7.1,5.084c-5.126.588-9.285-2.6-10.251-7.815-.042-.168.042-.378-.126-.42-.21-.084-.294.168-.42.294a2.458,2.458,0,0,0-.294,3.067c.84,1.555,1.765,3.067,2.647,4.622l2.143,3.655c.168.294.168.462-.168.63-1.26.714-2.521,1.428-3.739,2.185-.294.168-.42.168-.63-.126-2.773-4.79-5.546-9.621-8.319-14.411-.168-.336-.084-.462.168-.588,1.26-.714,2.479-1.428,3.7-2.143.378-.21.546-.168.714.21.084.21.168.5.378.5.126,0,.126-.378.168-.546a4.714,4.714,0,0,1,2.185-2.815c.21-.168.336-.084.462.126.294.5.588,1.05.882,1.555.084.168.168.5.378.462.168,0,.168-.336.21-.5a8.277,8.277,0,0,1,4.285-5.126c.8-.42,1.176-.756.966-1.723a4.6,4.6,0,0,1,.378-2.689.874.874,0,0,0-.294-1.134c-.714-.546-1.344-1.176-2.017-1.723a2.032,2.032,0,0,1-.756-1.639,36.478,36.478,0,0,1,.126-4.79c.21-1.3.252-2.647.42-3.949.21-1.639-.21-3.235-.21-4.832,0-.126,0-.336-.168-.336s-.21.168-.252.294a42.7,42.7,0,0,1-2.941,5.672c-.294.546-.8,1.008-1.05,1.6a.7.7,0,0,0,0,.756,1.159,1.159,0,0,1-.084,1.218.327.327,0,0,1-.42.168c-.168-.084-.126-.252-.084-.378.084-.252.168-.42-.168-.546-.42-.126-.924-.042-1.008.252a7.24,7.24,0,0,0-.462,2.1,4.612,4.612,0,0,1-.084,1.05,1.127,1.127,0,0,0,.294,1.008.577.577,0,0,1,0,.882,1.5,1.5,0,0,1-.42.462,2.215,2.215,0,0,0-.882,1.639,20.805,20.805,0,0,1-2.185,6.68,1.955,1.955,0,0,0,.084,2.353,22.246,22.246,0,0,1,1.386,2.395c.168.252.126.378-.126.546-1.3.756-2.6,1.47-3.865,2.269-.252.168-.378.084-.546-.168-2.521-4.411-5.042-8.781-7.6-13.192-.168-.294-.126-.462.168-.63,1.176-.672,2.353-1.344,3.487-2.017.294-.168.42-.126.588.168.21.336.336.8.672,1.05a10.553,10.553,0,0,1,.168-1.134A4.68,4.68,0,0,1,66.633,23.6c.21-.126.336-.126.42.084.8,1.386,1.6,2.773,2.395,4.117.126.252.084.378-.126.5A6.9,6.9,0,0,0,67.935,29.4a2.437,2.437,0,0,0-.546,2.941c.546,1.134,1.218,2.185,1.849,3.319.042.084.126.168.168.168.126,0,.126-.168.168-.252l.252-2.269a54.427,54.427,0,0,1,1.344-5.756,4.851,4.851,0,0,0,.168-2.059.726.726,0,0,1,.378-.924,1.087,1.087,0,0,0,.462-.588,23.6,23.6,0,0,0,.8-2.437.464.464,0,0,0,0-.336A2.457,2.457,0,0,1,74.2,18.641a1.231,1.231,0,0,0,.546-.672A71.461,71.461,0,0,1,77.6,10.994a11.96,11.96,0,0,0,.462-1.639l.126-.5c.5-1.975.546-2.017,2.479-2.689a2.973,2.973,0,0,0,1.6-1.176.509.509,0,0,0,.084-.63,2.29,2.29,0,0,1-.21-.924,1.78,1.78,0,0,0-.378-1.3c-.294-.336-.084-.672.378-.714a1.276,1.276,0,0,0,.882-.5c.8-.924,2.815-.5,3.361.756.252.63.378,1.344.672,1.975a.726.726,0,0,1-.5,1.008c-.168.084-.378.084-.546.168a.607.607,0,0,0-.21,1.05,1.871,1.871,0,0,0,1.218.5,1.241,1.241,0,0,1,1.218.84,4.962,4.962,0,0,0,1.555,1.933,9.7,9.7,0,0,1,1.975,2.185,1.185,1.185,0,0,1-.252,1.723A20.8,20.8,0,0,1,87.85,15.7c-.042.042-.168.042-.168.084-.084.546-.588.966-.42,1.555a6.372,6.372,0,0,1,.126.882c0,.126.042.336-.042.42-.672.714-.5,1.681-.63,2.521-.336,2.227-.63,4.453-.966,6.68a1.123,1.123,0,0,0,.21.882c.252.294.462.588.714.882.42.546.882,1.092,1.723.8h.084c1.092.084,1.3.378.966,1.428a4.277,4.277,0,0,0-.42,1.891c.042.252.084.42.336.5a7.228,7.228,0,0,1,1.6.84c.084.084.21.21.336.126.168-.084.084-.252.084-.42a9.008,9.008,0,0,1,1.05-4.79,9.174,9.174,0,0,1,12.562-3.655,3.472,3.472,0,0,0,.546.294c.042,0,.042,0,.084.042A.318.318,0,0,1,105.579,26.5Zm-5,12.772a4.2,4.2,0,0,0,4.369-3.235.926.926,0,0,1,.5-.672c1.008-.546,1.975-1.134,2.983-1.723,1.05-.63,1.05-.63.378-1.681-.126-.21-.252-.294-.5-.126-3.319,1.933-6.68,3.865-10,5.8-.294.168-.294.336-.042.546A3.492,3.492,0,0,0,100.58,39.269ZM86.253,47.63a4.062,4.062,0,0,0,4.075-3.235.91.91,0,0,1,.462-.63c1.134-.63,2.269-1.3,3.445-1.933.378-.21.5-.336.084-.63a3.36,3.36,0,0,1-.546-.546.4.4,0,0,0-.63-.084c-3.151,1.807-6.26,3.613-9.411,5.42-.378.21-.294.378-.042.63A3.852,3.852,0,0,0,86.253,47.63Zm14.033-18.066a4.94,4.94,0,0,0-1.134.126,4.061,4.061,0,0,0-3.109,4.5c.042.336.126.462.5.252,2.017-1.176,4.033-2.353,6.092-3.529.336-.21.252-.336,0-.5A3.84,3.84,0,0,0,100.286,29.564ZM81.59,41.916v.336c.042.714.084.756.714.42,1.933-1.092,3.823-2.227,5.756-3.319.5-.294.5-.336.042-.672a3.77,3.77,0,0,0-4.117-.336A3.832,3.832,0,0,0,81.59,41.916Zm5.8-31.51c-.21,0-.252.168-.294.294a9.476,9.476,0,0,1-.462.924,2.231,2.231,0,0,0-.252,1.386c.042.5.378.672.84.5a4.492,4.492,0,0,0,1.555-1.134c.294-.336.378-.588,0-.882s-.714-.63-1.092-.924A.677.677,0,0,1,87.387,10.406ZM85.833,33.387c1.134.042,1.134.042.588-1.008,0-.042-.042-.042-.042-.084-.126-.336-.294-.378-.588-.21-.21.126-.42.336-.672.168-.378-.294-.462-.084-.546.21-.042.21-.126.42-.168.63-.126.336.042.42.336.378A10.345,10.345,0,0,0,85.833,33.387Zm-2.9-8.613v-.63c0-.042.042-.126-.084-.168a.147.147,0,0,1-.084.042,1.679,1.679,0,0,0-.168,1.26c.042.126.126.294.252.252s.042-.21.042-.294A1.576,1.576,0,0,0,82.934,24.775Z" transform="translate(-35.36 -0.411)" fill="#1d733d"/>
    <path id="Path_2" data-name="Path 2" d="M20.53,97.7a8.248,8.248,0,0,1,.294-2.185.772.772,0,0,0-.084-.672c-1.765-3.025-3.529-6.05-5.294-9.033a5.673,5.673,0,0,0-.84-1.134,2.34,2.34,0,0,0-3.109-.588,2.581,2.581,0,0,0-1.386,3.151,7.367,7.367,0,0,0,.8,1.765c1.47,2.521,2.9,5.042,4.369,7.562.168.294.21.5-.168.672-1.26.714-2.479,1.428-3.7,2.143-.336.21-.5.126-.672-.21-2.731-4.79-5.5-9.537-8.277-14.327-.168-.294-.126-.462.168-.63,1.176-.672,2.353-1.344,3.487-2.017.294-.168.462-.126.63.168a4.951,4.951,0,0,0,.462.8c.042.084.126.168.168.168.126,0,.084-.168.084-.252a5.715,5.715,0,0,1,4.622-4.706,5.391,5.391,0,0,1,3.781.546c.42.21.5.126.546-.294a6.527,6.527,0,0,1,6.974-5.84,5.577,5.577,0,0,1,4.327,2.269,28.865,28.865,0,0,1,2.143,3.4c1.134,1.975,2.311,3.991,3.445,5.966.21.336.168.5-.168.714-1.218.672-2.437,1.386-3.613,2.1-.378.21-.546.168-.756-.21-1.26-2.227-2.521-4.411-3.781-6.638a5.425,5.425,0,0,0-1.176-1.555,2.211,2.211,0,0,0-2.731-.252,2.636,2.636,0,0,0-1.6,2.6,4.905,4.905,0,0,0,.672,1.849c1.344,2.311,2.689,4.622,3.991,6.932.252.42.42.5.84.252a5.925,5.925,0,0,1,4.285-.924,5.077,5.077,0,0,1,.756.21c.21.042.252,0,.168-.168-.168-.294-.294-.546-.462-.8-.126-.21-.126-.336.126-.462l3.907-2.269c.378-.252.462.084.63.294,2.1,3.571,4.159,7.184,6.26,10.8.714,1.26,1.47,2.521,2.143,3.823a7.282,7.282,0,0,1-.882,8.571,11.963,11.963,0,0,1-8.361,4.748,6.582,6.582,0,0,1-5.588-2.059c-.42-.42-.42-.462.084-.756,1.47-.84,2.941-1.681,4.369-2.521a.5.5,0,0,1,.588-.084c1.555.84,2.9.294,4.117-.756,1.512-1.3,1.723-2.983.8-4.958a2.2,2.2,0,0,0-.546-.882,3.013,3.013,0,0,0-.21.882,5.378,5.378,0,0,1-2.269,3.151,8.7,8.7,0,0,1-12.226-2.269A10.418,10.418,0,0,1,20.53,97.7Zm5.294.084a4.682,4.682,0,0,0,4.453,4.579A4.358,4.358,0,0,0,34.521,98.2a4.76,4.76,0,0,0-4.453-4.664A4.232,4.232,0,0,0,25.824,97.781Z" transform="translate(-2.366 -42.37)" fill="#1d733d"/>
    <path id="Path_3" data-name="Path 3" d="M201.847,28.085a4.6,4.6,0,0,0,.252.462c.168.252.126.378-.126.546s-.378.042-.5-.168c-.252-.5-.546-1.008-.84-1.512-.084-.168-.252-.336.042-.462.21-.084.42-.42.756-.126.21.168.42.378.63.546.084.042.126.168.252.084a.191.191,0,0,0,0-.21,4.884,4.884,0,0,0-.168-.756c-.084-.21,0-.336.168-.5.378-.252.63-.21.84.21a13.173,13.173,0,0,0,.756,1.3c.126.21.168.336-.084.5-.21.126-.378.168-.5-.126-.126-.21-.168-.42-.378-.546-.084.252.042.42.084.672.042.21.084.378-.126.5-.252.126-.378-.042-.5-.168a3.782,3.782,0,0,1-.42-.378h-.126Z" transform="translate(-117.259 -15.15)" fill="#1d733d"/>
  </g>
</svg>
