<svg id="email" xmlns="http://www.w3.org/2000/svg" width="31.717" height="31.171" viewBox="0 0 31.717 31.171">
  <path id="Path_1291" data-name="Path 1291" d="M40.434,12.127l-11.6,8.614-1.9,1.417a2.793,2.793,0,0,1-3.392,0l-1.9-1.417-11.611-8.6a3.4,3.4,0,0,1,2.8-1.474H37.648A3.419,3.419,0,0,1,40.434,12.127Z" transform="translate(-9.379 -10.668)" fill="#ffd54f"/>
  <g id="Group_102" data-name="Group 102" transform="translate(0 1.459)">
    <path id="Path_1292" data-name="Path 1292" d="M.648,32.855l11.611,8.6L1.006,53.017A3.592,3.592,0,0,1,0,50.509V34.924A3.565,3.565,0,0,1,.648,32.855Z" transform="translate(0 -32.841)" fill="#ffc107"/>
    <path id="Path_1293" data-name="Path 1293" d="M313.273,34.725V50.31a3.592,3.592,0,0,1-1.007,2.508L301.014,41.256l11.6-8.614A3.587,3.587,0,0,1,313.273,34.725Z" transform="translate(-281.556 -32.642)" fill="#ffc107"/>
  </g>
  <path id="Path_1294" data-name="Path 1294" d="M140.411,255.25c-.916,0-1.379-.708-1.379-2.125a3.49,3.49,0,1,0-3.529,3.542,3.45,3.45,0,0,0,2.69-1.251,2.444,2.444,0,0,0,2.219,1.251c2.758,0,2.758-2.667,2.758-3.542a7.587,7.587,0,1,0-7.585,7.793,7.479,7.479,0,0,0,5.273-2.192.725.725,0,0,0,.013-1.005.679.679,0,0,0-.978-.013h0a6.089,6.089,0,0,1-8.774-.163,6.5,6.5,0,0,1,.159-9.015,6.089,6.089,0,0,1,8.774.163,6.469,6.469,0,0,1,1.739,4.433C141.79,254.713,141.442,255.25,140.411,255.25Zm-4.826,0a2.126,2.126,0,1,1,2.068-2.125A2.1,2.1,0,0,1,135.584,255.25Z" transform="translate(-119.726 -229.747)" fill="#455a64"/>
  <path id="Path_1295" data-name="Path 1295" d="M34.025,162.348l-1.9,1.417a2.793,2.793,0,0,1-3.392,0l-1.9-1.417L15.574,173.909a3.4,3.4,0,0,0,2.441,1.034H21.5a8.939,8.939,0,0,1,17.856,0h3.483a3.4,3.4,0,0,0,2.441-1.034Z" transform="translate(-14.567 -152.274)" fill="#ffa000"/>
</svg>
