<svg xmlns="http://www.w3.org/2000/svg" width="9.421" height="9.278" viewBox="0 0 9.421 9.278">
  <g id="expand-arrow" transform="translate(9.421 9.278) rotate(180)">
    <path id="Path_1080" data-name="Path 1080" d="M10.215,14.649a.8.8,0,0,0,0,1.128l3.955,3.943a.8.8,0,0,0,1.1.025l3.9-3.885a.8.8,0,1,0-1.124-1.128L14.7,18.03l-3.352-3.385A.8.8,0,0,0,10.215,14.649Z" transform="translate(-9.983 -10.675)" fill="#3d3d3d"/>
    <path id="Path_1081" data-name="Path 1081" d="M10.215,14.649a.8.8,0,0,0,0,1.128l3.955,3.943a.8.8,0,0,0,1.1.025l3.9-3.885a.8.8,0,1,0-1.124-1.128L14.7,18.03l-3.352-3.385A.8.8,0,0,0,10.215,14.649Z" transform="translate(-9.983 -14.413)" fill="#3d3d3d"/>
  </g>
</svg>
