<svg id="games" xmlns="http://www.w3.org/2000/svg" width="26.638" height="26.249" viewBox="0 0 26.638 26.249">
  <g id="Group_135" data-name="Group 135" transform="translate(6.369 0.41)">
    <path id="Path_1353" data-name="Path 1353" d="M136.051,31.9l.273-.883v-18.9a.491.491,0,0,0-.491-.491H122.915a.491.491,0,0,0-.491.491v18.9l.273.883Z" transform="translate(-122.424 -11.622)" fill="#407093"/>
  </g>
  <g id="Group_136" data-name="Group 136" transform="translate(6.369 19.803)">
    <path id="Path_1354" data-name="Path 1354" d="M122.424,384.371v3.4a.491.491,0,0,0,.491.491h12.918a.491.491,0,0,0,.491-.491v-3.4Z" transform="translate(-122.424 -384.371)" fill="#dae7ef"/>
  </g>
  <g id="Group_137" data-name="Group 137" transform="translate(18.459 0.41)">
    <path id="Path_1355" data-name="Path 1355" d="M356.117,11.623H354.8V31.9h1.537l.273-.883v-18.9a.491.491,0,0,0-.491-.491Z" transform="translate(-354.797 -11.623)" fill="#2b4d66"/>
  </g>
  <g id="Group_138" data-name="Group 138" transform="translate(6.369 19.803)">
    <path id="Path_1356" data-name="Path 1356" d="M134.514,384.371v1.592a.491.491,0,0,1-.491.491h-11.6v1.32a.491.491,0,0,0,.491.491h12.918a.491.491,0,0,0,.491-.491v-3.4h-1.81Z" transform="translate(-122.424 -384.371)" fill="#c1d5e4"/>
  </g>
  <g id="Group_140" data-name="Group 140" transform="translate(5.959 0)">
    <g id="Group_139" data-name="Group 139" transform="translate(0 0)">
      <path id="Path_1357" data-name="Path 1357" d="M128.358,27.843H115.439a.9.9,0,0,1-.9-.9V4.638a.9.9,0,0,1,.9-.9h12.918a.9.9,0,0,1,.9.9v22.3A.9.9,0,0,1,128.358,27.843ZM115.439,4.557a.081.081,0,0,0-.081.081v22.3a.081.081,0,0,0,.081.081h12.918a.081.081,0,0,0,.081-.081V4.638a.081.081,0,0,0-.081-.081Z" transform="translate(-114.538 -3.737)" fill="#98b9d3"/>
    </g>
  </g>
  <g id="Group_141" data-name="Group 141" transform="translate(14.906 6.168)">
    <path id="Path_1358" data-name="Path 1358" d="M298.084,137.005a3.313,3.313,0,0,0-.07-.325l-1.621-6.137a3.164,3.164,0,0,0-.656-1.251,3.163,3.163,0,0,1-.486-.767l-2.589-5.788a1.014,1.014,0,0,0-.394-.449v5.624l.291.93a1.639,1.639,0,0,1,.075.493l0,2.726a1.2,1.2,0,0,1-1.2,1.2h-.006a1.255,1.255,0,0,1-.977-.481l-1.041-1.329a1.914,1.914,0,0,0-2.685-.328.584.584,0,0,0-.1.82l2.6,3.324a1.064,1.064,0,0,1,.22.656,2.165,2.165,0,0,0,1.7,2.108l1.13.25a.245.245,0,0,1,.192.24v3.36a.486.486,0,0,0,.486.486l4.8-.01a.486.486,0,0,0,.486-.486v-3.054A11.523,11.523,0,0,0,298.084,137.005Z" transform="translate(-286.495 -122.288)" fill="#eaac9d"/>
  </g>
  <g id="Group_142" data-name="Group 142" transform="translate(8.249 3.541)">
    <ellipse id="Ellipse_62" data-name="Ellipse 62" cx="1.073" cy="1.073" rx="1.073" ry="1.073" fill="#dd5790"/>
  </g>
  <g id="Group_143" data-name="Group 143" transform="translate(16.2 3.541)">
    <ellipse id="Ellipse_63" data-name="Ellipse 63" cx="1.073" cy="1.073" rx="1.073" ry="1.073" fill="#dd5790"/>
  </g>
  <g id="Group_144" data-name="Group 144" transform="translate(8.249 7.187)">
    <ellipse id="Ellipse_64" data-name="Ellipse 64" cx="1.073" cy="1.073" rx="1.073" ry="1.073" fill="#dd5790"/>
  </g>
  <g id="Group_145" data-name="Group 145" transform="translate(12.192 10.779)">
    <ellipse id="Ellipse_65" data-name="Ellipse 65" cx="1.073" cy="1.073" rx="1.073" ry="1.073" transform="translate(0 0)" fill="#dd5790"/>
  </g>
  <g id="Group_146" data-name="Group 146" transform="translate(12.134 3.567)">
    <path id="Path_1359" data-name="Path 1359" d="M233.985,72.505l-.7,1.211a.431.431,0,0,0,.373.646h1.4a.431.431,0,0,0,.373-.646l-.7-1.211A.431.431,0,0,0,233.985,72.505Z" transform="translate(-233.228 -72.29)" fill="#f6e266"/>
  </g>
  <g id="Group_147" data-name="Group 147" transform="translate(16.143 7.213)">
    <path id="Path_1360" data-name="Path 1360" d="M311.04,142.6l-.7,1.211a.431.431,0,0,0,.373.647h1.4a.431.431,0,0,0,.373-.647l-.7-1.211A.431.431,0,0,0,311.04,142.6Z" transform="translate(-310.283 -142.385)" fill="#f6e266"/>
  </g>
  <g id="Group_148" data-name="Group 148" transform="translate(8.192 10.86)">
    <path id="Path_1361" data-name="Path 1361" d="M158.216,212.695l-.7,1.211a.431.431,0,0,0,.373.646h1.4a.431.431,0,0,0,.373-.646l-.7-1.211A.431.431,0,0,0,158.216,212.695Z" transform="translate(-157.459 -212.479)" fill="#f6e266"/>
  </g>
  <g id="Group_149" data-name="Group 149" transform="translate(11.586 21.511)">
    <path id="Path_1362" data-name="Path 1362" d="M225.75,418.014H223.1a.41.41,0,1,1,0-.82h2.646a.41.41,0,1,1,0,.82Z" transform="translate(-222.694 -417.194)" fill="#407093"/>
  </g>
  <g id="Group_150" data-name="Group 150" transform="translate(15.972 11.16)">
    <path id="Path_1363" data-name="Path 1363" d="M309.34,220.018h-2.083a.26.26,0,0,1-.26-.26v-1.252a.26.26,0,0,1,.26-.26h2.083a.26.26,0,0,1,.26.26v1.252A.26.26,0,0,1,309.34,220.018Z" transform="translate(-306.997 -218.245)" fill="#61a2f9"/>
  </g>
  <g id="Group_151" data-name="Group 151" transform="translate(11.964 7.374)">
    <path id="Path_1364" data-name="Path 1364" d="M232.3,147.253h-2.083a.26.26,0,0,1-.26-.26V145.74a.26.26,0,0,1,.26-.26H232.3a.26.26,0,0,1,.26.26v1.252A.26.26,0,0,1,232.3,147.253Z" transform="translate(-229.953 -145.48)" fill="#61a2f9"/>
  </g>
  <g id="Group_152" data-name="Group 152" transform="translate(20.68 6.168)">
    <path id="Path_1365" data-name="Path 1365" d="M403.3,137.005a3.3,3.3,0,0,0-.07-.325l-1.62-6.137a3.162,3.162,0,0,0-.656-1.251,3.162,3.162,0,0,1-.485-.767l-2.589-5.788a1.014,1.014,0,0,0-.394-.449v2.193l1.809,4.044a3.162,3.162,0,0,0,.486.767,3.164,3.164,0,0,1,.656,1.251l1.62,6.137a3.322,3.322,0,0,1,.07.325,11.545,11.545,0,0,1,.143,1.814v3.054a.486.486,0,0,1-.486.486l-3.669.007.045,0,4.8-.01a.486.486,0,0,0,.486-.486v-3.054A11.537,11.537,0,0,0,403.3,137.005Z" transform="translate(-397.481 -122.288)" fill="#df9380"/>
  </g>
  <g id="Group_153" data-name="Group 153" transform="translate(0 6.167)">
    <path id="Path_1366" data-name="Path 1366" d="M11.508,131.114a1.913,1.913,0,0,0-2.685.328l-1.041,1.329a1.255,1.255,0,0,1-.977.481H6.8a1.2,1.2,0,0,1-1.2-1.2l0-2.726a1.64,1.64,0,0,1,.075-.493l.292-.933v-5.622a1.015,1.015,0,0,0-.395.45l-2.589,5.788a3.164,3.164,0,0,1-.486.767,3.164,3.164,0,0,0-.656,1.251L.213,136.67a3.319,3.319,0,0,0-.07.325A11.543,11.543,0,0,0,0,138.809v3.054a.486.486,0,0,0,.486.486l4.8.01a.486.486,0,0,0,.486-.486v-3.36a.245.245,0,0,1,.192-.24l1.13-.25a2.165,2.165,0,0,0,1.7-2.108,1.064,1.064,0,0,1,.22-.656l2.6-3.324a.584.584,0,0,0-.1-.82Z" transform="translate(0 -122.277)" fill="#eaac9d"/>
  </g>
  <g id="Group_155" data-name="Group 155" transform="translate(4.659 14.692)">
    <g id="Group_154" data-name="Group 154">
      <path id="Path_1367" data-name="Path 1367" d="M96.405,286.436a1.9,1.9,0,0,0-.586-.312.585.585,0,0,1-.09.163l-2.6,3.324a1.065,1.065,0,0,0-.22.656,2.165,2.165,0,0,1-1.7,2.108l-1.464.379a.246.246,0,0,0-.192.24v4.686h.624a.486.486,0,0,0,.486-.486v-3.36a.245.245,0,0,1,.192-.24l1.13-.25a2.165,2.165,0,0,0,1.7-2.108,1.065,1.065,0,0,1,.22-.656l2.6-3.324A.584.584,0,0,0,96.405,286.436Z" transform="translate(-89.557 -286.124)" fill="#df9380"/>
    </g>
  </g>
</svg>
