<svg xmlns="http://www.w3.org/2000/svg" width="24.045" height="34.864" viewBox="0 0 24.045 34.864">
  <g id="icon-scratch" transform="translate(24.045) rotate(90)">
    <path id="Path_1413" data-name="Path 1413" d="M0,0H34.864V24.045H0Z" fill="#faa41b"/>
    <path id="Path_1414" data-name="Path 1414" d="M5.114,0a2.1,2.1,0,0,0-1.5.636,2.1,2.1,0,1,0-1.5,3.572H5.114A2.1,2.1,0,0,0,5.114,0ZM1.207,2.1a.9.9,0,0,1,1.8,0v.9h-.9A.9.9,0,0,1,1.207,2.1Zm3.907.9h-.9V2.1a.9.9,0,1,1,.9.9Z" transform="translate(0.6 15.03) rotate(-90)" fill="#ee2849"/>
    <path id="Path_1415" data-name="Path 1415" d="M0,0H20.438V19.236H0Z" transform="translate(12.022 2.404)" fill="#6b778a"/>
    <path id="Path_1416" data-name="Path 1416" d="M0,0H7.213V7.213H0Z" transform="translate(4.206 15.026) rotate(-90)" fill="#eff2fa"/>
    <path id="Path_1417" data-name="Path 1417" d="M0,0H2.4V7.213H0Z" transform="translate(4.206 12.622) rotate(-90)" fill="#ee2849"/>
    <path id="Path_1418" data-name="Path 1418" d="M13.926,6.613c-.039,0-.076.009-.115.011l.716-.716a1.695,1.695,0,0,0-.765-2.839l.167-.167a1.7,1.7,0,0,0-2.4-2.4L10.208,1.815c0-.038.011-.076.011-.115A1.7,1.7,0,0,0,7.317.5L6,1.815c0-.038.011-.076.011-.115A1.7,1.7,0,0,0,3.109.5L.5,3.109a1.7,1.7,0,0,0,1.2,2.9c.039,0,.076-.009.115-.011L.5,7.317a1.7,1.7,0,0,0,1.2,2.9c.039,0,.076-.009.115-.011L.5,11.525a1.7,1.7,0,0,0,2.4,2.4l.762-.765a1.695,1.695,0,0,0,2.839.768L7.82,12.615c0,.038-.011.076-.011.115a1.7,1.7,0,0,0,2.9,1.2l4.415-4.415a1.7,1.7,0,0,0-1.2-2.9Z" transform="translate(14.429 4.809)" fill="#e4e8ed"/>
    <g id="Group_164" data-name="Group 164" transform="translate(18.634 16.23) rotate(-90)">
      <path id="Path_1419" data-name="Path 1419" d="M1.8,1.8a.6.6,0,0,1,.6.6h1.2A1.8,1.8,0,0,0,2.4.712V0H1.2V.712a1.8,1.8,0,0,0,.6,3.5.6.6,0,1,1-.6.6H0A1.8,1.8,0,0,0,1.2,6.5v.712H2.4V6.5a1.8,1.8,0,0,0-.6-3.5.6.6,0,0,1,0-1.2Z" transform="translate(0 0)" fill="#1f9342"/>
      <path id="Path_1420" data-name="Path 1420" d="M1.8,3.006a.6.6,0,1,1,.6-.6h1.2A1.8,1.8,0,0,0,2.4.712V0H1.2V.712a1.8,1.8,0,0,0,.6,3.5.6.6,0,1,1-.6.6H0A1.8,1.8,0,0,0,1.2,6.5v.712H2.4V6.5a1.8,1.8,0,0,0-.6-3.5Z" transform="translate(4.809 0)" fill="#1f9342"/>
    </g>
  </g>
</svg>
