<svg id="icon-support" xmlns="http://www.w3.org/2000/svg" width="31.674" height="32.543" viewBox="0 0 31.674 32.543">
  <path id="Path_1318" data-name="Path 1318" d="M31.674,16.272a16.446,16.446,0,0,1-4.529,11.391,15.819,15.819,0,0,1-5.3,3.667,15.4,15.4,0,0,1-5.8,1.212h-.208l-.237,0-.191,0a15.393,15.393,0,0,1-5.584-1.208,15.619,15.619,0,0,1-2.76-1.51,15.949,15.949,0,0,1-2.536-2.157A16.447,16.447,0,0,1,0,16.272,16.059,16.059,0,0,1,15.837,0,16.059,16.059,0,0,1,31.674,16.272Z" transform="translate(0 0)" fill="#9fd3e6"/>
  <g id="Group_118" data-name="Group 118" transform="translate(4.529 0.003)">
    <g id="Group_117" data-name="Group 117">
      <path id="Path_1319" data-name="Path 1319" d="M134.948,49.061V63.684H118.609V49.061a8.173,8.173,0,1,1,16.339,0Z" transform="translate(-115.471 -37.97)" fill="#db2b51"/>
      <g id="Group_114" data-name="Group 114" transform="translate(0 2.698)">
        <path id="Path_1320" data-name="Path 1320" d="M125.385,59.617c.15.638-1.207,3.528-1.146,4.067h-5.631V49.062a8.284,8.284,0,0,1,8.17-8.393c-3.037,0-5.025,6.555-3.831,15.91C123.165,58.273,124.947,57.76,125.385,59.617Z" transform="translate(-115.471 -40.668)" fill="#b21646"/>
        <path id="Path_1321" data-name="Path 1321" d="M92.676,331.993a15.819,15.819,0,0,1-5.3,3.667,15.4,15.4,0,0,1-5.8,1.212h-.208l-.237,0-.191,0a15.392,15.392,0,0,1-5.584-1.208,15.842,15.842,0,0,1-5.3-3.667l3.544-5.046a2.251,2.251,0,0,1,1.839-.966h11.85a2.252,2.252,0,0,1,1.839.966Z" transform="translate(-70.06 -307.031)" fill="#6184c7"/>
        <path id="Path_1322" data-name="Path 1322" d="M211.729,310.91v1l-.655,1.821-1.814,4.486-1.814-4.486-.655-1.821v-1Z" transform="translate(-197.953 -292.962)" fill="#dba290"/>
        <path id="Path_1323" data-name="Path 1323" d="M158.412,115v1.874a6.541,6.541,0,0,1-5.752,6.568,6.276,6.276,0,0,1-.676.036,6.517,6.517,0,0,1-6.428-6.6V115a6.518,6.518,0,0,1,6.428-6.6,6.257,6.257,0,0,1,.676.036,6.335,6.335,0,0,1,3.869,1.9A6.68,6.68,0,0,1,158.412,115Z" transform="translate(-140.676 -103.899)" fill="#dba290"/>
        <path id="Path_1324" data-name="Path 1324" d="M177.97,115.509v1.874a5.8,5.8,0,1,1-11.5,0v-1.874a6.541,6.541,0,0,1,5.752-6.568,6.335,6.335,0,0,1,3.869,1.9A6.68,6.68,0,0,1,177.97,115.509Z" transform="translate(-160.234 -104.407)" fill="#edbba7"/>
        <g id="Group_111" data-name="Group 111" transform="translate(7.368 9.528)">
          <path id="Path_1325" data-name="Path 1325" d="M186.417,185.343a1.186,1.186,0,1,0-2.371,0Z" transform="translate(-184.046 -184.125)" fill="#dba290"/>
          <path id="Path_1326" data-name="Path 1326" d="M271.629,185.343a1.186,1.186,0,1,0-2.371,0Z" transform="translate(-263.75 -184.125)" fill="#dba290"/>
          <g id="Group_110" data-name="Group 110" transform="translate(0.494 0.499)">
            <path id="Path_1327" data-name="Path 1327" d="M192.386,191.636a.7.7,0,0,1,.691.71v1.113a.691.691,0,1,1-1.382,0v-1.113A.7.7,0,0,1,192.386,191.636Z" transform="translate(-191.695 -191.636)" fill="#2d2636"/>
            <path id="Path_1328" data-name="Path 1328" d="M277.6,191.636a.7.7,0,0,1,.691.71v1.113a.691.691,0,1,1-1.382,0v-1.113A.7.7,0,0,1,277.6,191.636Z" transform="translate(-271.399 -191.636)" fill="#2d2636"/>
          </g>
        </g>
        <g id="Group_112" data-name="Group 112" transform="translate(10.317 7.636)">
          <path id="Path_1329" data-name="Path 1329" d="M230.655,155.639l-.991,6.35h.991" transform="translate(-229.664 -155.639)" fill="#dba290"/>
        </g>
        <path id="Path_1330" data-name="Path 1330" d="M147.173,99.09a15.984,15.984,0,0,1-10.213-3.7,3.283,3.283,0,0,1-1.214,2.087c-.942.873-2.2,1.479-2.931,1.123l-.18-1.975,1.5-3.272,2.254-.584,4.174-1.082,5.167,2.1Z" transform="translate(-128.59 -88.295)" fill="#db2b51"/>
        <path id="Path_1331" data-name="Path 1331" d="M136.391,97.542a23.15,23.15,0,0,0-.644,4.708c-.942.873-2.2,1.479-2.931,1.123l-.18-1.975,1.6-4.6Z" transform="translate(-128.59 -93.071)" fill="#b21646"/>
        <path id="Path_1332" data-name="Path 1332" d="M210.683,262.383a2.663,2.663,0,0,1-.148.878,2.61,2.61,0,0,1-.416.763,2.438,2.438,0,0,1-.256.281,2.494,2.494,0,0,1-3.453,0,2.438,2.438,0,0,1-.256-.281,2.613,2.613,0,0,1-.416-.763,2.663,2.663,0,0,1-.148-.878Z" transform="translate(-196.828 -247.658)" fill="#2d2636"/>
        <path id="Path_1333" data-name="Path 1333" d="M221.73,281.563a2.494,2.494,0,0,1-3.453,0,2.494,2.494,0,0,1,3.453,0Z" transform="translate(-208.696 -264.916)" fill="#db2b51"/>
        <g id="Group_113" data-name="Group 113" transform="translate(6.386 12.973)">
          <ellipse id="Ellipse_57" data-name="Ellipse 57" cx="1.194" cy="0.602" rx="1.194" ry="0.602" transform="translate(7.456 0)" fill="#dba290"/>
          <ellipse id="Ellipse_58" data-name="Ellipse 58" cx="1.194" cy="0.602" rx="1.194" ry="0.602" transform="translate(0 0)" fill="#dba290"/>
        </g>
        <path id="Path_1334" data-name="Path 1334" d="M210.683,262.383c0,.024,0,.048,0,.071a5.48,5.48,0,0,1-5.091,0c0-.024,0-.048,0-.071Z" transform="translate(-196.828 -247.658)" fill="#fff"/>
      </g>
      <path id="Path_1335" data-name="Path 1335" d="M220.552,353.4l-1.814,4.486-1.814-4.486Z" transform="translate(-207.431 -329.927)" fill="#db2b51"/>
      <path id="Path_1336" data-name="Path 1336" d="M116.221,13.108h-1.494V9.86a8.069,8.069,0,1,0-16.132,0v3.248H97.1V9.86a9.563,9.563,0,1,1,19.12,0Z" transform="translate(-95.353 -0.038)" fill="#232c31"/>
      <path id="Path_1337" data-name="Path 1337" d="M342.412,254.593H340.9v-1.535h1.511a.362.362,0,0,0,.356-.366V251.14h1.494v1.552A1.878,1.878,0,0,1,342.412,254.593Z" transform="translate(-323.394 -234.463)" fill="#232c31"/>
      <path id="Path_1338" data-name="Path 1338" d="M78.9,325.98l-2.467,1.03a3.1,3.1,0,0,0-1.674,1.716L72.6,334.15a15.949,15.949,0,0,1-2.536-2.157l3.544-5.046a2.251,2.251,0,0,1,1.839-.966H78.9Z" transform="translate(-70.06 -304.333)" fill="#4f73ad"/>
      <g id="Group_115" data-name="Group 115" transform="translate(0.553 9.464)">
        <path id="Path_1339" data-name="Path 1339" d="M353.87,142.53H352.6a1.325,1.325,0,0,0-1.307,1.343V148.4a1.325,1.325,0,0,0,1.307,1.343h1.27a1.325,1.325,0,0,0,1.307-1.343v-4.528A1.325,1.325,0,0,0,353.87,142.53Z" transform="translate(-333.667 -142.53)" fill="#4c5c60"/>
        <path id="Path_1340" data-name="Path 1340" d="M81.191,142.53h-1.27a1.325,1.325,0,0,0-1.307,1.343V148.4a1.325,1.325,0,0,0,1.307,1.343h1.27A1.325,1.325,0,0,0,82.5,148.4v-4.528A1.325,1.325,0,0,0,81.191,142.53Z" transform="translate(-78.614 -142.53)" fill="#4c5c60"/>
      </g>
      <g id="Group_116" data-name="Group 116" transform="translate(0.553 13.722)">
        <path id="Path_1341" data-name="Path 1341" d="M355.18,206.656v1.611a1.325,1.325,0,0,1-1.307,1.343H352.6a1.325,1.325,0,0,1-1.307-1.343v-1.611A1.325,1.325,0,0,0,352.6,208h1.27A1.325,1.325,0,0,0,355.18,206.656Z" transform="translate(-333.67 -206.656)" fill="#232c31"/>
        <path id="Path_1342" data-name="Path 1342" d="M82.5,206.656v1.611a1.325,1.325,0,0,1-1.307,1.343h-1.27a1.325,1.325,0,0,1-1.307-1.343v-1.611A1.325,1.325,0,0,0,79.924,208h1.27A1.325,1.325,0,0,0,82.5,206.656Z" transform="translate(-78.617 -206.656)" fill="#232c31"/>
      </g>
      <path id="Path_1343" data-name="Path 1343" d="M310.764,271.36h-.735a1.324,1.324,0,0,0,0,2.647h.735a1.324,1.324,0,0,0,0-2.647Z" transform="translate(-293.313 -253.34)" fill="#2d2636"/>
      <path id="Path_1344" data-name="Path 1344" d="M164.013,342.27v8.6a15.494,15.494,0,0,1-12.023,0v-8.6Z" transform="translate(-146.694 -319.541)" fill="#e4e4e4"/>
    </g>
  </g>
</svg>
