<svg xmlns="http://www.w3.org/2000/svg" width="23" height="22.014" viewBox="0 0 23 22.014">
  <g id="icon-roulette" transform="translate(0.434 0.133)">
    <ellipse id="Ellipse_73" data-name="Ellipse 73" cx="11.5" cy="10.5" rx="11.5" ry="10.5" transform="translate(-0.434 -0.133)" fill="#f7a16e"/>
    <path id="Path_1398" data-name="Path 1398" d="M63.191,74.255a11.064,11.064,0,0,0,6.824-19.772,1.336,1.336,0,0,0,.055,1.83A9.728,9.728,0,0,1,56.312,70.07a1.336,1.336,0,0,0-1.83-.055A11.044,11.044,0,0,0,63.191,74.255Z" transform="translate(-52.452 -52.374)" fill="#b66652"/>
    <path id="Path_1399" data-name="Path 1399" d="M70.367,58.449a8.792,8.792,0,0,0-3.193-3.193l-4.362-1.171a8.673,8.673,0,0,0-4.362,1.171l-3.193,3.193a8.672,8.672,0,0,0-1.171,4.362l1.171,4.362a8.792,8.792,0,0,0,3.193,3.193l4.362,1.171a8.672,8.672,0,0,0,4.362-1.171l3.193-3.193a8.672,8.672,0,0,0,1.171-4.362Z" transform="translate(-52.072 -51.994)" fill="#4d5967"/>
    <g id="Group_160" data-name="Group 160" transform="translate(2.013 2.091)">
      <path id="Path_1400" data-name="Path 1400" d="M54.085,256a8.672,8.672,0,0,0,1.171,4.362L62.811,256Z" transform="translate(-54.085 -247.274)" fill="#ff5368"/>
      <path id="Path_1401" data-name="Path 1401" d="M84.368,81.176a8.792,8.792,0,0,0-3.193,3.193l7.555,4.362Z" transform="translate(-80.004 -80.005)" fill="#ff5368"/>
      <path id="Path_1402" data-name="Path 1402" d="M260.362,55.256A8.673,8.673,0,0,0,256,54.085v8.726Z" transform="translate(-247.274 -54.085)" fill="#ff5368"/>
    </g>
    <path id="SVGCleanerId_0" d="M155.065,263.555a8.673,8.673,0,0,0,4.362,1.171V256Z" transform="translate(-148.688 -245.183)" fill="#ff5368"/>
    <g id="Group_161" data-name="Group 161" transform="translate(6.377 10.817)">
      <path id="SVGCleanerId_0_1_" d="M155.065,263.555a8.673,8.673,0,0,0,4.362,1.171V256Z" transform="translate(-155.065 -256)" fill="#ff5368"/>
    </g>
    <path id="Path_1403" data-name="Path 1403" d="M256,159.427h8.726a8.672,8.672,0,0,0-1.171-4.362Z" transform="translate(-245.261 -148.61)" fill="#ff5368"/>
    <path id="Path_1404" data-name="Path 1404" d="M260.362,263.555a8.792,8.792,0,0,0,3.193-3.193L256,256Z" transform="translate(-245.261 -245.183)" fill="#4fe267"/>
    <path id="Path_1405" data-name="Path 1405" d="M143.795,81.065,142.624,76.7a8.792,8.792,0,0,0-3.193-3.193l-1.29-.346a1.336,1.336,0,0,0,.62,1.5,7.388,7.388,0,1,1-7.385,12.8,1.335,1.335,0,0,0-1.77.4,8.762,8.762,0,0,0,1.1.757l4.362,1.171a8.672,8.672,0,0,0,4.362-1.171l3.193-3.193A8.672,8.672,0,0,0,143.795,81.065Z" transform="translate(-124.329 -70.247)" fill="#35404a"/>
    <g id="Group_162" data-name="Group 162" transform="translate(6.377 2.684)">
      <path id="Path_1406" data-name="Path 1406" d="M326.164,67.793a1.335,1.335,0,0,0,.534,1.734h0l.668-1.157A8.7,8.7,0,0,0,326.164,67.793Z" transform="translate(-318.644 -67.793)" fill="#d9435b"/>
      <path id="Path_1407" data-name="Path 1407" d="M155.733,404.061l-.668,1.157a8.673,8.673,0,0,0,4.362,1.171v-1.336a7.372,7.372,0,0,1-3.692-.991Z" transform="translate(-155.065 -389.529)" fill="#d9435b"/>
    </g>
    <path id="Path_1408" data-name="Path 1408" d="M342.1,345.342a8.79,8.79,0,0,0,3.193-3.193l-1.157-.668a7.427,7.427,0,0,1-2.707,2.7Z" transform="translate(-327 -326.969)" fill="#00bd4f"/>
    <path id="Path_1409" data-name="Path 1409" d="M403.97,155.735a7.374,7.374,0,0,1,1,3.692H406.3a8.673,8.673,0,0,0-1.171-4.362Z" transform="translate(-386.836 -148.61)" fill="#d9435b"/>
    <path id="Path_1410" data-name="Path 1410" d="M181.09,184.473a3.384,3.384,0,1,1,3.384-3.384A3.4,3.4,0,0,1,181.09,184.473Z" transform="translate(-170.35 -170.272)" fill="#f7a16e"/>
    <path id="Path_1411" data-name="Path 1411" d="M190.074,186.672a3.388,3.388,0,0,0-2.1-3.132,1.336,1.336,0,0,0,.168,1.683,2.048,2.048,0,1,1-2.9,2.9,1.336,1.336,0,0,0-1.682-.169,3.383,3.383,0,0,0,6.514-1.279Z" transform="translate(-175.951 -175.854)" fill="#b66652"/>
    <g id="Group_163" data-name="Group 163" transform="translate(5.263 5.341)">
      <path id="Path_1412" data-name="Path 1412" d="M205.4,203.033a.627.627,0,0,0-.531.294h-.872v-.872a.628.628,0,1,0-.668,0v.872h-.872a.628.628,0,1,0,0,.668h.872v.872a.628.628,0,1,0,.668,0V204h.872a.627.627,0,1,0,.531-.962Z" transform="translate(-198.184 -198.185)" fill="#fff9eb"/>
      <ellipse id="Ellipse_74" data-name="Ellipse 74" cx="0.668" cy="0.668" rx="0.668" ry="0.668" fill="#fff9eb"/>
    </g>
  </g>
</svg>
