<svg id="icon-baccarat" xmlns="http://www.w3.org/2000/svg" width="25.6" height="17.655" viewBox="0 0 25.6 17.655">
  <path id="Path_1431" data-name="Path 1431" d="M22.862,12l-2.648,2.648H11.386L8.738,12H3V29.655H28.6V12Z" transform="translate(-3 -12)" fill="#55b56a"/>
  <path id="Path_1432" data-name="Path 1432" d="M28.593,15.766,30.359,14H18l1.766,1.766Z" transform="translate(-11.379 -13.117)" fill="#f7c469"/>
  <g id="Group_177" data-name="Group 177" transform="translate(9.71 0.883)">
    <path id="Path_1433" data-name="Path 1433" d="M25,14h.883v1.766H25Z" transform="translate(-25 -14)" fill="#ad6327"/>
    <path id="Path_1434" data-name="Path 1434" d="M29,14h.883v1.766H29Z" transform="translate(-27.234 -14)" fill="#ad6327"/>
    <path id="Path_1435" data-name="Path 1435" d="M33,14h.883v1.766H33Z" transform="translate(-29.469 -14)" fill="#ad6327"/>
    <path id="Path_1436" data-name="Path 1436" d="M37,14h.883v1.766H37Z" transform="translate(-31.703 -14)" fill="#ad6327"/>
  </g>
  <path id="Path_1437" data-name="Path 1437" d="M22,22h8.828v2.648H22Z" transform="translate(-13.614 -17.586)" fill="#cfdfe8"/>
  <path id="Path_1438" data-name="Path 1438" d="M31,31h.883v2.207H31Z" transform="translate(-18.641 -22.614)" fill="#143441"/>
  <path id="Path_1439" data-name="Path 1439" d="M23.126,38.094l-2.987,2.987a10.54,10.54,0,0,0,5.235,1.385V38.494A6.593,6.593,0,0,1,23.126,38.094Z" transform="translate(-12.574 -26.577)" fill="#f4f4e6"/>
  <path id="Path_1440" data-name="Path 1440" d="M14.776,37.819l2.987-2.987a6.634,6.634,0,0,1-3.277-2.577l-3.948,1.1A10.637,10.637,0,0,0,14.776,37.819Z" transform="translate(-7.211 -23.315)" fill="#afafac"/>
  <path id="Path_1441" data-name="Path 1441" d="M13.068,27.644A6.587,6.587,0,0,1,11.972,24H8a10.541,10.541,0,0,0,1.12,4.74Z" transform="translate(-5.793 -18.703)" fill="#f4f4e6"/>
  <path id="Path_1442" data-name="Path 1442" d="M34.154,38.094l2.987,2.987a10.54,10.54,0,0,1-5.235,1.385V38.494A6.593,6.593,0,0,0,34.154,38.094Z" transform="translate(-19.147 -26.577)" fill="#afafac"/>
  <path id="Path_1443" data-name="Path 1443" d="M39.987,37.819,37,34.832a6.634,6.634,0,0,0,3.277-2.577l3.948,1.1a10.633,10.633,0,0,1-4.238,4.468Z" transform="translate(-21.993 -23.315)" fill="#f4f4e6"/>
  <path id="Path_1444" data-name="Path 1444" d="M44.424,27.644A6.587,6.587,0,0,0,45.52,24h3.972a10.541,10.541,0,0,1-1.12,4.74Z" transform="translate(-26.14 -18.703)" fill="#afafac"/>
  <path id="Path_1445" data-name="Path 1445" d="M12,28h.883v.883H12Z" transform="translate(-8.028 -20.938)" fill="#e1462b"/>
  <path id="Path_1446" data-name="Path 1446" d="M17,37h.883v.883H17Z" transform="translate(-10.821 -25.966)" fill="#fcf05a"/>
  <path id="Path_1447" data-name="Path 1447" d="M27,42h.883v.883H27Z" transform="translate(-16.407 -28.759)" fill="#e1462b"/>
  <path id="Path_1448" data-name="Path 1448" d="M35,42h.883v.883H35Z" transform="translate(-20.876 -28.759)" fill="#fcf05a"/>
  <path id="Path_1449" data-name="Path 1449" d="M44,37h.883v.883H44Z" transform="translate(-25.903 -25.966)" fill="#e1462b"/>
  <path id="Path_1450" data-name="Path 1450" d="M50,28h.883v.883H50Z" transform="translate(-29.255 -20.938)" fill="#fcf05a"/>
  <path id="Path_1451" data-name="Path 1451" d="M6.883,17.648H6V15H8.648v.883H6.883Z" transform="translate(-4.676 -13.676)" fill="#143441"/>
  <path id="Path_1452" data-name="Path 1452" d="M54.648,17.648h-.883V15.883H52V15h2.648Z" transform="translate(-30.372 -13.676)" fill="#143441"/>
</svg>
