<svg id="icon-fortune-wheel" xmlns="http://www.w3.org/2000/svg" width="26.672" height="32.513" viewBox="0 0 26.672 32.513">
  <path id="Path_1372" data-name="Path 1372" d="M133.1,362.954H117.4l2.305-7.055h11.088Z" transform="translate(-112.866 -333.298)" fill="#6f7d96"/>
  <path id="Path_1373" data-name="Path 1373" d="M248.849,362.954H241V355.9h5.544Z" transform="translate(-228.617 -333.298)" fill="#66728b"/>
  <path id="Path_1374" data-name="Path 1374" d="M226.953,0,226,1.27v9.668l.953,1.509.873.079,6.966-6.965.917-1.87A12.4,12.4,0,0,0,226.953,0Z" transform="translate(-214.569 0)" fill="#f40f78"/>
  <path id="Path_1375" data-name="Path 1375" d="M249.756,58.114,241,66.87l1.191.953H252.51l.873-.953A12.344,12.344,0,0,0,249.756,58.114Z" transform="translate(-228.617 -54.424)" fill="#ffbc33"/>
  <path id="Path_1376" data-name="Path 1376" d="M241,196l.241,1.194,6.609,6.609,1.906.954A12.344,12.344,0,0,0,253.383,196Z" transform="translate(-228.617 -183.554)" fill="#f40f78"/>
  <path id="Path_1377" data-name="Path 1377" d="M226.953,196,226,197.51v9.683l.953,1.19a12.344,12.344,0,0,0,8.756-3.627Z" transform="translate(-214.569 -183.554)" fill="#ffbc33"/>
  <path id="Path_1378" data-name="Path 1378" d="M103.114,204.756a12.344,12.344,0,0,0,8.756,3.627V196l-1.766.814-6.946,6.946Z" transform="translate(-99.487 -183.554)" fill="#ff507e"/>
  <path id="Path_1379" data-name="Path 1379" d="M46,181.953a12.344,12.344,0,0,0,3.627,8.756l8.756-8.756L57.153,181H47.628Z" transform="translate(-46 -169.506)" fill="#ffda2d"/>
  <path id="Path_1380" data-name="Path 1380" d="M49.627,58.114A12.344,12.344,0,0,0,46,66.87H58.383l-.673-1.625-7-7Z" transform="translate(-46 -54.424)" fill="#ff507e"/>
  <path id="Path_1381" data-name="Path 1381" d="M103.114,3.69l8.756,8.756V0A12.4,12.4,0,0,0,103.114,3.69Z" transform="translate(-99.487)" fill="#ffda2d"/>
  <path id="Path_1382" data-name="Path 1382" d="M96.956,453.905a1.911,1.911,0,0,1-1.905,1.905H77.905a1.905,1.905,0,1,1,0-3.81H95.051A1.911,1.911,0,0,1,96.956,453.905Z" transform="translate(-74.095 -423.297)" fill="#495a79"/>
  <path id="Path_1383" data-name="Path 1383" d="M251.478,453.905a1.911,1.911,0,0,1-1.905,1.905H241V452h8.573A1.911,1.911,0,0,1,251.478,453.905Z" transform="translate(-228.617 -423.297)" fill="#42516d"/>
  <path id="Path_1384" data-name="Path 1384" d="M352.249,136.084l-5.715,2.858a.955.955,0,0,0,0,1.715l5.715,2.858a.956.956,0,0,0,1.372-.857v-5.715A.956.956,0,0,0,352.249,136.084Z" transform="translate(-326.949 -127.352)" fill="#495a79"/>
  <path id="Path_1385" data-name="Path 1385" d="M353.62,196v2.858a.956.956,0,0,1-1.372.857l-5.715-2.858A.975.975,0,0,1,346,196Z" transform="translate(-326.949 -183.554)" fill="#42516d"/>
  <path id="Path_1386" data-name="Path 1386" d="M201.715,153.858A2.858,2.858,0,1,1,198.858,151,2.854,2.854,0,0,1,201.715,153.858Z" transform="translate(-186.474 -141.411)" fill="#495a79"/>
  <path id="Path_1387" data-name="Path 1387" d="M243.858,153.858A2.854,2.854,0,0,1,241,156.715V151A2.854,2.854,0,0,1,243.858,153.858Z" transform="translate(-228.617 -141.411)" fill="#42516d"/>
  <path id="Path_1388" data-name="Path 1388" d="M227.905,181.953a.953.953,0,1,1-.953-.953A.943.943,0,0,1,227.905,181.953Z" transform="translate(-214.569 -169.506)" fill="#e1e4fb"/>
  <path id="Path_1389" data-name="Path 1389" d="M241.952,181.953a.943.943,0,0,1-.953.953V181A.943.943,0,0,1,241.952,181.953Z" transform="translate(-228.617 -169.506)" fill="#a8aff1"/>
</svg>
