<svg id="icon_money_bag" data-name="icon money bag" xmlns="http://www.w3.org/2000/svg" width="31.909" height="34.66" viewBox="0 0 31.909 34.66">
  <g id="money-bag">
    <path id="Path_987" data-name="Path 987" d="M159.7,192.187l-.149.162A17.588,17.588,0,0,0,155,203.41a6.763,6.763,0,0,0,3.608,6.443c1.853.995,4.37,1.458,7.918,1.458l1.968-10.628-1.968-11.205Z" transform="translate(-146.144 -176.651)" fill="#fd5"/>
    <path id="Path_988" data-name="Path 988" d="M325.633,191.994,319,189.478v21.833c3.549,0,6.065-.463,7.918-1.458a6.763,6.763,0,0,0,3.608-6.443A17.428,17.428,0,0,0,325.633,191.994Z" transform="translate(-298.618 -176.651)" fill="#edbe00"/>
    <path id="Path_989" data-name="Path 989" d="M258.054,0V2.708L257,4.4l1.054,2.437,3.3,1.156,1.827-4.135L261.358,0Z" transform="translate(-240.975)" fill="#fd5"/>
    <path id="Path_990" data-name="Path 990" d="M319,0V7.993l5.763-.818,3.092-3.926V0Z" transform="translate(-298.618)" fill="#edbe00"/>
    <path id="Path_991" data-name="Path 991" d="M162.643,43.848a2.169,2.169,0,0,1-2.209-2.127V39.408H152V49.535a13.948,13.948,0,0,0,9.672,3.859h2.066l1.757-4.739-1.757-4.806Z" transform="translate(-143.355 -36.74)" fill="#ffccbd"/>
    <path id="Path_992" data-name="Path 992" d="M325.978,105H319v9.545h4.041A4.866,4.866,0,0,0,328,109.772v-2.829A1.982,1.982,0,0,0,325.978,105Z" transform="translate(-298.618 -97.892)" fill="#f9a58d"/>
    <path id="Path_993" data-name="Path 993" d="M273.926,395.331l-.877-.553-1.147,1.689.877.553a3.858,3.858,0,0,0,1.465.6v1.1h.969l.492-1.625-.492-1.426A1.823,1.823,0,0,1,273.926,395.331Z" transform="translate(-254.83 -368.054)" fill="#a30f59"/>
    <path id="Path_994" data-name="Path 994" d="M282.991,292.768a.277.277,0,0,1-.034-.227.717.717,0,0,1,.581-.577l.351-1.407L283.539,289h-.969v1.154c-1.714.635-2.382,3.068-.872,4.2a7.26,7.26,0,0,0,1.841.917l.351-.993-.351-1.2A3.137,3.137,0,0,1,282.991,292.768Z" transform="translate(-263.157 -269.436)" fill="#a30f59"/>
    <path id="Path_995" data-name="Path 995" d="M319.079,291.953h.431a2.931,2.931,0,0,1,.907.291l.922.479.994-1.777a8.244,8.244,0,0,0-2.206-.937V289H319v2.964C319.026,291.959,319.052,291.955,319.079,291.953Z" transform="translate(-298.618 -269.436)" fill="#840c48"/>
    <path id="Path_996" data-name="Path 996" d="M320.234,349.78A12.574,12.574,0,0,1,319,349.3v2.191c.178.065.357.128.535.189a.655.655,0,0,1,.515.789.965.965,0,0,1-.978.8H319v3.05h1.127v-1.212A2.791,2.791,0,0,0,320.234,349.78Z" transform="translate(-298.618 -325.658)" fill="#840c48"/>
    <path id="Path_997" data-name="Path 997" d="M29,0h9.769V14.487H29Z" transform="translate(-29)" fill="#00c6cd"/>
  </g>
</svg>
