<svg xmlns="http://www.w3.org/2000/svg" width="82.076" height="48.614" viewBox="0 0 82.076 48.614">
  <g id="icon-dices" transform="translate(0 29.199) rotate(-60)">
    <path id="Path_1368" data-name="Path 1368" d="M95.262,5.573,74.976.137a4,4,0,0,0-4.893,2.825L64.646,23.249a4,4,0,0,0,2.825,4.893l20.287,5.436a4,4,0,0,0,4.893-2.825l5.436-20.287A4,4,0,0,0,95.262,5.573Z" transform="translate(-64.509 0)" fill="#ff5368"/>
    <path id="Path_1369" data-name="Path 1369" d="M97.981,51.112a3.992,3.992,0,0,0-2.825,2.825L90.84,70.043a4.328,4.328,0,0,1-5.3,3.061L69.433,68.788a3.992,3.992,0,0,0-3.859,1.034A3.993,3.993,0,0,0,68.4,72.647l20.287,5.436a4,4,0,0,0,4.893-2.825l5.436-20.287A3.993,3.993,0,0,0,97.981,51.112Z" transform="translate(-65.436 -44.505)" fill="#c5324f"/>
    <path id="Path_1370" data-name="Path 1370" d="M220.264,274.443l-5.436-20.287a4,4,0,0,0-4.893-2.825l-20.287,5.436a4,4,0,0,0-2.825,4.893l5.436,20.287a4,4,0,0,0,4.893,2.825l20.287-5.436A4,4,0,0,0,220.264,274.443Z" transform="translate(-170.892 -218.721)" fill="#ff5368"/>
    <path id="Path_1371" data-name="Path 1371" d="M259.332,255.084a3.993,3.993,0,0,0-2.825-2.825,3.993,3.993,0,0,0-1.034,3.859l4.316,16.106a4.329,4.329,0,0,1-3.061,5.3l-16.106,4.316a3.993,3.993,0,0,0-2.825,2.825,3.993,3.993,0,0,0,3.859,1.034l20.287-5.436a4,4,0,0,0,2.825-4.893Z" transform="translate(-215.395 -219.648)" fill="#c5324f"/>
    <g id="Group_156" data-name="Group 156" transform="translate(6.521 6.522)">
      <ellipse id="Ellipse_66" data-name="Ellipse 66" cx="2.997" cy="2.997" rx="2.997" ry="2.997" transform="translate(27.37 32.472)" fill="#fff9eb"/>
      <ellipse id="Ellipse_67" data-name="Ellipse 67" cx="2.997" cy="2.997" rx="2.997" ry="2.997" transform="translate(18.894 47.151)" fill="#fff9eb"/>
      <ellipse id="Ellipse_68" data-name="Ellipse 68" cx="2.997" cy="2.997" rx="2.997" ry="2.997" transform="translate(23.135 39.813)" fill="#fff9eb"/>
      <ellipse id="Ellipse_69" data-name="Ellipse 69" cx="2.997" cy="2.997" rx="2.997" ry="2.997" transform="translate(3.102)" fill="#fff9eb"/>
      <ellipse id="Ellipse_70" data-name="Ellipse 70" cx="2.997" cy="2.997" rx="2.997" ry="2.997" transform="translate(14.681 3.101)" fill="#fff9eb"/>
      <ellipse id="Ellipse_71" data-name="Ellipse 71" cx="2.997" cy="2.997" rx="2.997" ry="2.997" transform="translate(0 11.577)" fill="#fff9eb"/>
      <ellipse id="Ellipse_72" data-name="Ellipse 72" cx="2.997" cy="2.997" rx="2.997" ry="2.997" transform="translate(11.577 14.681)" fill="#fff9eb"/>
    </g>
  </g>
</svg>
