<svg id="icon-poker" xmlns="http://www.w3.org/2000/svg" width="25.713" height="29.563" viewBox="0 0 25.713 29.563">
  <path id="Path_1390" data-name="Path 1390" d="M179.579,66.7c-.01.114-1.039,11.582-3.445,23.73a.433.433,0,0,1-.424.349h-.031c-.015,0-.609-.043-1.572-.13-1.515-.136-3.943-.381-6.471-.747-2.355-.341-4.58-.756-6.032-1.043a.433.433,0,0,1-.309-.607l10.689-23.033a.434.434,0,0,1,.46-.245c2.069.325,3.966.686,5.226.939.965.194,1.558.325,1.572.327a.433.433,0,0,1,.338.461Z" transform="translate(-153.868 -61.217)" fill="#8389aa"/>
  <path id="Path_1391" data-name="Path 1391" d="M52.144,26.942a.433.433,0,0,1-.4.409c-.016,0-.681.05-1.76.109-1.662.09-4.309.2-7.081.2-4.57,0-8.8-.309-8.841-.312a.433.433,0,0,1-.4-.409c-.7-13.525-.007-26.1,0-26.223a.433.433,0,0,1,.4-.408C34.1.309,38.332,0,42.9,0c2.764,0,5.4.113,7.066.2,1.087.059,1.759.108,1.775.109a.433.433,0,0,1,.4.408C52.151.845,52.84,13.417,52.144,26.942Z" transform="translate(-33.35 0)" fill="#f4f1e1"/>
  <path id="Path_1392" data-name="Path 1392" d="M323.338,30.25a.433.433,0,0,1-.4.409c-.016,0-.681.05-1.76.109.669-14.785.08-25.661-.015-27.258,1.087.059,1.759.108,1.775.109a.433.433,0,0,1,.4.408C323.345,4.153,324.033,16.725,323.338,30.25Z" transform="translate(-304.543 -3.307)" fill="#f4e5cb"/>
  <g id="Group_159" data-name="Group 159" transform="translate(2.901 2.869)">
    <g id="Group_158" data-name="Group 158">
      <g id="Group_157" data-name="Group 157">
        <path id="Path_1393" data-name="Path 1393" d="M84.662,53c.314,0,.832-.007,1.386,0,.079.247.154.5.221.758a.433.433,0,0,0,.838-.22,20.947,20.947,0,0,0-1.365-3.614.433.433,0,0,0-.774,0A20.955,20.955,0,0,0,83.6,53.537a.433.433,0,0,0,.838.22C84.508,53.5,84.583,53.247,84.662,53Zm.693-1.841c.119.276.254.607.391.972-.288,0-.557,0-.781,0C85.1,51.766,85.237,51.435,85.355,51.159Z" transform="translate(-83.589 -49.684)" fill="#ff7878"/>
        <path id="Path_1394" data-name="Path 1394" d="M256.319,357.137a20.942,20.942,0,0,0-1.365-3.614.433.433,0,0,0-.774,0,20.952,20.952,0,0,0-1.365,3.614.433.433,0,1,0,.838.22c.067-.256.142-.51.222-.758.314,0,.832-.007,1.386,0,.079.247.154.5.222.758a.433.433,0,0,0,.419.323.438.438,0,0,0,.11-.014A.433.433,0,0,0,256.319,357.137Zm-2.143-1.406c.137-.365.272-.7.391-.972.119.276.254.607.391.971C254.67,355.729,254.4,355.729,254.177,355.731Z" transform="translate(-243.03 -335.754)" fill="#ff7878"/>
        <path id="Path_1395" data-name="Path 1395" d="M108.429,160.907c0,4.735-5.807,6.344-5.9,6.369h0s-5.9-1.6-5.9-6.369c0-4.284,5.9-3.723,5.9-.512a2.674,2.674,0,0,1,2.62-2.538A2.854,2.854,0,0,1,108.429,160.907Z" transform="translate(-95.879 -151.596)" fill="#ff7878"/>
      </g>
      <path id="Path_1396" data-name="Path 1396" d="M204.7,160.912c0,4.735-5.807,6.344-5.9,6.369,1.818-1.445,3.761-3.683,3.761-6.638a3.48,3.48,0,0,0-1.142-2.78A2.854,2.854,0,0,1,204.7,160.912Z" transform="translate(-192.149 -151.601)" fill="#e84680"/>
    </g>
  </g>
  <path id="Path_1397" data-name="Path 1397" d="M389.315,82.118c-.01.114-1.039,11.582-3.445,23.73a.433.433,0,0,1-.424.349h-.031c-.015,0-.609-.043-1.572-.13,1.978-11.906,3.231-21.981,3.563-24.736.965.194,1.558.325,1.572.327A.433.433,0,0,1,389.315,82.118Z" transform="translate(-363.604 -76.634)" fill="#646d91"/>
</svg>
