<svg xmlns="http://www.w3.org/2000/svg" fill="#fff" width="17.424" height="17.424" viewBox="0 0 17.424 17.424">
  <g id="Icon_open-magnifying-glass" data-name="Icon open-magnifying-glass" transform="translate(0 0)">
    <path id="Icon_open-magnifying-glass-2" data-name="Icon open-magnifying-glass" d="M7.555-.023a7.555,7.555,0,1,0,0,15.109,7.467,7.467,0,0,0,3.583-.885,2.158,2.158,0,0,0,.281.281l2.158,2.158a2.2,2.2,0,1,0,3.108-3.108l-2.158-2.158a2.159,2.159,0,0,0-.345-.281,7.453,7.453,0,0,0,.95-3.583A7.563,7.563,0,0,0,7.576-.045Zm0,2.158a5.371,5.371,0,0,1,5.4,5.4,5.413,5.413,0,0,1-1.425,3.713l-.065.065a2.158,2.158,0,0,0-.281.281,5.4,5.4,0,0,1-3.648,1.36,5.4,5.4,0,0,1,0-10.792Z" transform="translate(0 0.045)"/>
  </g>
</svg>
