<svg id="logo-mr-green" xmlns="http://www.w3.org/2000/svg" width="213.358" height="169.585" viewBox="0 0 213.358 169.585">
  <path id="Path_1" data-name="Path 1" d="M168.794,62.1c-1.49-2.683-2.981-5.365-4.571-7.949-.5-.795-.5-1.192.4-1.689,2.782-1.49,5.465-3.08,8.147-4.67.6-.4.994-.4,1.391.3.3.6.7,1.192.994,1.788.1.2.2.6.5.6.4-.1.3-.5.3-.795a10.43,10.43,0,0,1,3.08-6.458,17.217,17.217,0,0,1,15-4.968c3.478.5,5.962,2.583,8.048,5.266a41.465,41.465,0,0,1,2.881,4.372c3.577,6.657,7.154,13.314,10.83,19.971.5.894.4,1.391-.5,1.888-2.881,1.59-5.663,3.18-8.446,4.968-.994.6-1.292.3-1.788-.5-3.577-6.16-7.154-12.42-10.731-18.58a15.229,15.229,0,0,0-2.881-3.776,5.145,5.145,0,0,0-5.167-.994c-4.769,1.49-6.657,5.664-4.272,10.135,2.484,4.67,5.266,9.24,7.949,13.811,1.192,2.186,2.484,4.272,3.776,6.458.4.7.3,1.093-.4,1.49-2.981,1.689-5.962,3.378-8.843,5.167-.7.4-1.093.4-1.49-.4-1.391-2.583-2.881-5.167-4.372-7.651-.2-.3-.3-.795-.6-.7s-.2.6-.2.994a24.21,24.21,0,0,1-2.087,10.234c-3.08,7.055-8.744,10.731-16.1,11.923a20.767,20.767,0,0,1-15.1-3.279c-.3-.2-.6-.6-.894-.3-.3.2-.2.7-.1.994a23.976,23.976,0,0,1-1.987,10.532c-3.279,7.253-9.042,11.128-16.792,12.023-12.122,1.391-21.958-6.16-24.244-18.481-.1-.4.1-.894-.3-.994-.5-.2-.7.4-.994.7-1.888,2.186-2.186,4.471-.7,7.253,1.987,3.676,4.173,7.253,6.26,10.93l5.067,8.644c.4.7.4,1.093-.4,1.49-2.981,1.689-5.962,3.378-8.843,5.167-.7.4-.994.4-1.49-.3-6.558-11.327-13.115-22.753-19.673-34.08-.4-.795-.2-1.093.4-1.391,2.981-1.689,5.862-3.378,8.744-5.067.894-.5,1.292-.4,1.689.5.2.5.4,1.192.894,1.192.3,0,.3-.894.4-1.292.7-2.981,2.683-4.968,5.167-6.657.5-.4.795-.2,1.093.3.7,1.192,1.391,2.484,2.087,3.676.2.4.4,1.192.894,1.093.4,0,.4-.795.5-1.192a19.575,19.575,0,0,1,10.135-12.122c1.888-.994,2.782-1.788,2.285-4.074a10.873,10.873,0,0,1,.894-6.359,2.067,2.067,0,0,0-.7-2.683c-1.689-1.292-3.179-2.782-4.769-4.074a4.807,4.807,0,0,1-1.788-3.875c.1-3.776-.3-7.551.3-11.327.5-3.08.6-6.26.994-9.34.5-3.875-.5-7.651-.5-11.426,0-.3,0-.795-.4-.795s-.5.4-.6.7c-1.689,4.769-4.571,8.942-6.955,13.414-.7,1.292-1.888,2.385-2.484,3.776a1.661,1.661,0,0,0,0,1.788,2.74,2.74,0,0,1-.2,2.881.773.773,0,0,1-.994.4c-.4-.2-.3-.6-.2-.894.2-.6.4-.994-.4-1.292-.994-.3-2.186-.1-2.385.6a17.123,17.123,0,0,0-1.093,4.968,10.907,10.907,0,0,1-.2,2.484,2.665,2.665,0,0,0,.7,2.385,1.366,1.366,0,0,1,0,2.087,3.544,3.544,0,0,1-.994,1.093C90.6,63,90.2,64.388,89.9,65.977a49.2,49.2,0,0,1-5.167,15.8c-.994,1.987-1.292,3.676.2,5.564A52.612,52.612,0,0,1,88.213,93c.4.6.3.894-.3,1.292-3.08,1.788-6.16,3.478-9.141,5.365-.6.4-.894.2-1.292-.4C71.521,88.83,65.559,78.5,59.5,68.064c-.4-.7-.3-1.093.4-1.49,2.782-1.59,5.564-3.18,8.247-4.769.7-.4.994-.3,1.391.4.5.795.795,1.888,1.59,2.484a24.958,24.958,0,0,1,.4-2.683c.7-3.08,2.683-5.067,5.167-6.756.5-.3.795-.3.994.2,1.888,3.279,3.776,6.558,5.664,9.737.3.6.2.894-.3,1.192a16.33,16.33,0,0,0-3.279,2.583,5.763,5.763,0,0,0-1.292,6.955c1.292,2.683,2.881,5.167,4.372,7.849.1.2.3.4.4.4.3,0,.3-.4.4-.6l.6-5.365c.6-4.67,2.087-9.042,3.179-13.612a11.472,11.472,0,0,0,.4-4.869,1.717,1.717,0,0,1,.894-2.186A2.57,2.57,0,0,0,89.8,56.141a55.812,55.812,0,0,0,1.888-5.763,1.1,1.1,0,0,0,0-.795,5.81,5.81,0,0,1,2.881-6.061,2.91,2.91,0,0,0,1.292-1.59,169.008,169.008,0,0,1,6.756-16.494,28.286,28.286,0,0,0,1.093-3.875l.3-1.192c1.192-4.67,1.292-4.769,5.862-6.359a7.03,7.03,0,0,0,3.776-2.782,1.2,1.2,0,0,0,.2-1.49,5.415,5.415,0,0,1-.5-2.186,4.209,4.209,0,0,0-.894-3.08c-.7-.795-.2-1.59.894-1.689a3.017,3.017,0,0,0,2.087-1.192C117.326-.594,122.1.4,123.387,3.381c.6,1.49.894,3.18,1.59,4.67a1.718,1.718,0,0,1-1.192,2.385c-.4.2-.894.2-1.292.4a1.435,1.435,0,0,0-.5,2.484,4.426,4.426,0,0,0,2.881,1.192,2.936,2.936,0,0,1,2.881,1.987,11.735,11.735,0,0,0,3.676,4.571,22.941,22.941,0,0,1,4.67,5.167,2.8,2.8,0,0,1-.6,4.074c-2.782,2.186-5.365,4.67-8.644,6.26-.1.1-.4.1-.4.2-.2,1.292-1.391,2.285-.994,3.676a15.075,15.075,0,0,1,.3,2.087c0,.3.1.795-.1.994-1.59,1.689-1.192,3.974-1.49,5.962-.795,5.266-1.49,10.532-2.285,15.8a2.656,2.656,0,0,0,.5,2.087c.6.7,1.093,1.391,1.689,2.087.994,1.292,2.087,2.583,4.074,1.888h.2c2.583.2,3.08.894,2.285,3.378-.5,1.49-1.192,2.881-.994,4.471.1.6.2.994.795,1.192a17.1,17.1,0,0,1,3.776,1.987c.2.2.5.5.795.3.4-.2.2-.6.2-.994a21.3,21.3,0,0,1,2.484-11.327A21.7,21.7,0,0,1,167.4,61.7a8.215,8.215,0,0,0,1.292.7c.1,0,.1,0,.2.1A.751.751,0,0,1,168.794,62.1ZM156.97,92.308c5.365,0,9.24-2.981,10.333-7.651a2.189,2.189,0,0,1,1.192-1.59c2.385-1.292,4.67-2.683,7.055-4.074,2.484-1.49,2.484-1.49.894-3.974-.3-.5-.6-.7-1.192-.3-7.849,4.571-15.8,9.141-23.648,13.712-.7.4-.7.795-.1,1.292A8.258,8.258,0,0,0,156.97,92.308ZM123.089,112.08a9.607,9.607,0,0,0,9.638-7.651,2.152,2.152,0,0,1,1.093-1.49c2.683-1.49,5.365-3.08,8.147-4.571.894-.5,1.192-.795.2-1.49a7.943,7.943,0,0,1-1.292-1.292.942.942,0,0,0-1.49-.2c-7.452,4.272-14.8,8.545-22.257,12.817-.894.5-.7.894-.1,1.49A9.11,9.11,0,0,0,123.089,112.08Zm33.186-42.725a11.682,11.682,0,0,0-2.683.3c-4.968,1.391-8.148,5.862-7.353,10.631.1.795.3,1.093,1.192.6,4.769-2.782,9.538-5.564,14.407-8.346.795-.5.6-.795,0-1.192A9.081,9.081,0,0,0,156.275,69.356ZM112.06,98.567v.795c.1,1.689.2,1.788,1.689.994,4.571-2.583,9.042-5.266,13.612-7.849,1.192-.7,1.192-.795.1-1.59a8.915,8.915,0,0,0-9.737-.795A9.064,9.064,0,0,0,112.06,98.567Zm13.712-74.52c-.5,0-.6.4-.7.7a22.4,22.4,0,0,1-1.093,2.186,5.277,5.277,0,0,0-.6,3.279c.1,1.192.894,1.59,1.987,1.192a10.624,10.624,0,0,0,3.676-2.683c.7-.795.894-1.391,0-2.087s-1.689-1.49-2.583-2.186A1.6,1.6,0,0,1,125.771,24.048ZM122.1,78.4c2.683.1,2.683.1,1.391-2.385,0-.1-.1-.1-.1-.2-.3-.795-.7-.894-1.391-.5-.5.3-.994.795-1.59.4-.894-.7-1.093-.2-1.292.5-.1.5-.3.994-.4,1.49-.3.795.1.994.795.894A24.464,24.464,0,0,0,122.1,78.4Zm-6.856-20.369v-1.49c0-.1.1-.3-.2-.4a.347.347,0,0,1-.2.1,3.971,3.971,0,0,0-.4,2.981c.1.3.3.7.6.6s.1-.5.1-.7A3.726,3.726,0,0,0,115.239,58.029Z" transform="translate(-2.73 -0.411)" fill="#fff"/>
  <path id="Path_2" data-name="Path 2" d="M45.323,131.72a19.507,19.507,0,0,1,.7-5.167,1.827,1.827,0,0,0-.2-1.59C41.647,117.81,37.474,110.656,33.3,103.6a13.416,13.416,0,0,0-1.987-2.683c-2.285-2.385-4.67-2.881-7.353-1.391-2.981,1.689-4.173,4.272-3.279,7.452a17.423,17.423,0,0,0,1.888,4.173c3.478,5.962,6.856,11.923,10.333,17.885.4.7.5,1.192-.4,1.59-2.981,1.689-5.862,3.378-8.744,5.067-.795.5-1.192.3-1.59-.5C15.714,123.871,9.156,112.643,2.6,101.316c-.4-.7-.3-1.093.4-1.49,2.782-1.59,5.564-3.18,8.247-4.769.7-.4,1.093-.3,1.49.4a11.706,11.706,0,0,0,1.093,1.888c.1.2.3.4.4.4.3,0,.2-.4.2-.6a13.516,13.516,0,0,1,10.93-11.128,12.748,12.748,0,0,1,8.942,1.292c.994.5,1.192.3,1.292-.7A15.435,15.435,0,0,1,52.08,72.8a13.189,13.189,0,0,1,10.234,5.365,68.261,68.261,0,0,1,5.067,8.048c2.683,4.67,5.465,9.439,8.147,14.109.5.795.4,1.192-.4,1.689-2.881,1.59-5.763,3.279-8.545,4.968-.894.5-1.292.4-1.788-.5-2.981-5.266-5.962-10.433-8.942-15.7a12.829,12.829,0,0,0-2.782-3.676,5.229,5.229,0,0,0-6.458-.6c-2.683,1.49-4.074,3.676-3.776,6.16a11.6,11.6,0,0,0,1.59,4.372c3.18,5.465,6.359,10.93,9.439,16.394.6.994.994,1.192,1.987.6a14.012,14.012,0,0,1,10.135-2.186,12.009,12.009,0,0,1,1.788.5c.5.1.6,0,.4-.4-.4-.7-.7-1.292-1.093-1.888-.3-.5-.3-.795.3-1.093l9.24-5.365c.894-.6,1.093.2,1.49.7,4.968,8.446,9.837,16.991,14.8,25.535,1.689,2.981,3.478,5.962,5.067,9.042,3.875,7.253,2.881,14.01-2.087,20.269-5.067,6.359-11.625,10.433-19.773,11.228A15.565,15.565,0,0,1,62.91,165.5c-.994-.994-.994-1.093.2-1.789,3.478-1.987,6.955-3.974,10.333-5.962a1.177,1.177,0,0,1,1.391-.2c3.676,1.987,6.856.7,9.737-1.788,3.577-3.08,4.074-7.055,1.888-11.724a5.21,5.21,0,0,0-1.292-2.087,7.126,7.126,0,0,0-.5,2.087,12.719,12.719,0,0,1-5.365,7.452c-9.439,6.657-22.058,4.272-28.914-5.365A24.637,24.637,0,0,1,45.323,131.72Zm12.519.2c0,5.663,4.968,10.83,10.532,10.83,5.266,0,10.035-4.67,10.035-9.837,0-5.763-5.067-11.029-10.532-11.029A10.008,10.008,0,0,0,57.842,131.919Z" transform="translate(-2.366 -0.875)" fill="#fff"/>
  <path id="Path_3" data-name="Path 3" d="M203.68,31.166a10.845,10.845,0,0,0,.6,1.093c.4.6.3.894-.3,1.292s-.894.1-1.192-.4c-.6-1.192-1.292-2.385-1.987-3.577-.2-.4-.6-.795.1-1.093.5-.2.994-.994,1.789-.3.5.4.994.894,1.49,1.292.2.1.3.4.6.2a.451.451,0,0,0,0-.5,11.559,11.559,0,0,0-.4-1.788c-.2-.5,0-.795.4-1.192.894-.6,1.49-.5,1.987.5a31.14,31.14,0,0,0,1.788,3.08c.3.5.4.795-.2,1.192-.5.3-.894.4-1.192-.3-.3-.5-.4-.994-.894-1.292-.2.6.1.994.2,1.59.1.5.2.894-.3,1.192-.6.3-.894-.1-1.192-.4a8.953,8.953,0,0,1-.994-.894h-.3Q203.68,31.166,203.68,31.166Z" transform="translate(-3.635 -0.574)" fill="#fff"/>
</svg>
