<svg id="mastercard" xmlns="http://www.w3.org/2000/svg" width="42.907" height="42.458" viewBox="0 0 42.907 42.458">
  <ellipse id="Ellipse_41" data-name="Ellipse 41" cx="21.454" cy="21.229" rx="21.454" ry="21.229" transform="translate(0)" fill="#3c80ad"/>
  <path id="Path_1239" data-name="Path 1239" d="M61.085,121.955a9.778,9.778,0,1,0,6.7,17.007h0a9.862,9.862,0,0,0,1-1.047h-2.02a9.467,9.467,0,0,1-.735-1.008h3.483a9.745,9.745,0,0,0,.575-1.046H65.455a9.462,9.462,0,0,1-.412-1.027H70.5a9.663,9.663,0,0,0,.507-3.1,9.766,9.766,0,0,0-.227-2.094H64.753a9.873,9.873,0,0,1,.281-1.027h5.46a9.741,9.741,0,0,0-.425-1.047H65.454a9.4,9.4,0,0,1,.565-1.027H69.5a9.719,9.719,0,0,0-.765-1.046H66.8a8.986,8.986,0,0,1,.988-.987,9.864,9.864,0,0,0-6.635-2.549Z" transform="translate(-46.645 -111.03)" fill="#931b1d"/>
  <path id="Path_1240" data-name="Path 1240" d="M217.1,131.736a9.86,9.86,0,0,1-19.719,0v0a9.86,9.86,0,0,1,19.719-.005A.042.042,0,0,0,217.1,131.736Z" transform="translate(-179.509 -111.03)" fill="#f16622"/>
  <path id="Path_1241" data-name="Path 1241" d="M217.1,132.947a9.86,9.86,0,0,1-19.719.005v0a9.86,9.86,0,0,1,19.719-.005A.048.048,0,0,0,217.1,132.947Z" transform="translate(-179.509 -112.133)" fill="#f7981d"/>
  <path id="Path_1242" data-name="Path 1242" d="M61.085,123.193a9.778,9.778,0,1,0,6.7,17.007h0a9.709,9.709,0,0,0,1-1.047h-2.02a9.39,9.39,0,0,1-.735-1.006h3.483a9.824,9.824,0,0,0,.575-1.047H65.455a9.536,9.536,0,0,1-.412-1.027H70.5a9.748,9.748,0,0,0,.281-5.2H64.753a9.873,9.873,0,0,1,.281-1.027h5.46a9.753,9.753,0,0,0-.425-1.048H65.454a9.491,9.491,0,0,1,.565-1.027H69.5a9.9,9.9,0,0,0-.765-1.047H66.8a9.1,9.1,0,0,1,.988-.987,9.865,9.865,0,0,0-6.635-2.549Z" transform="translate(-46.645 -112.157)" fill="#cb2026"/>
  <g id="Group_89" data-name="Group 89" transform="translate(5.579 18.289)">
    <path id="Path_1243" data-name="Path 1243" d="M183.051,213.554l.132-.885c-.072,0-.178.03-.271.03-.365,0-.406-.192-.382-.335l.3-1.806h.555l.134-.979h-.523l.107-.608h-1.05c-.023.023-.62,3.423-.62,3.837a.776.776,0,0,0,.836.882A2.784,2.784,0,0,0,183.051,213.554Z" transform="translate(-170.581 -208.54)" fill="#fff"/>
    <path id="Path_1244" data-name="Path 1244" d="M203.035,216.877a1.642,1.642,0,0,0,1.813,1.821,2.68,2.68,0,0,0,1.109-.171l.185-1a3.274,3.274,0,0,1-1.115.257c-1.127,0-.93-.834-.93-.834h2.134a7.474,7.474,0,0,0,.137-.95,1.4,1.4,0,0,0-1.5-1.522C203.816,214.475,203.035,215.6,203.035,216.877Zm1.841-1.471c.592,0,.483.66.483.714h-1.165C204.193,216.052,204.3,215.407,204.876,215.407Z" transform="translate(-190.232 -213.55)" fill="#fff"/>
    <path id="Path_1245" data-name="Path 1245" d="M268.59,209.163l.188-1.136a2.532,2.532,0,0,1-.869.257,1.034,1.034,0,0,1-1.043-1.17c0-1.23.641-1.906,1.354-1.906a1.878,1.878,0,0,1,.964.3l.171-1.1a3.787,3.787,0,0,0-1.182-.256c-1.212,0-2.392,1.042-2.392,3,0,1.3.637,2.156,1.89,2.156A4.872,4.872,0,0,0,268.59,209.163Z" transform="translate(-247.298 -204.149)" fill="#fff"/>
    <path id="Path_1246" data-name="Path 1246" d="M115.989,214.654a3.659,3.659,0,0,0-1.272.229l-.152.9a3.35,3.35,0,0,1,1.144-.183c.391,0,.676.043.676.359a.663.663,0,0,1-.035.262s-.308-.026-.451-.026c-.908,0-1.861.384-1.861,1.543a.992.992,0,0,0,1.013,1.122,1.368,1.368,0,0,0,1.077-.478l-.035.4h.924l.413-2.868A1.239,1.239,0,0,0,115.989,214.654Zm.225,2.334c.02.175-.111,1-.743,1a.381.381,0,0,1-.411-.394c0-.285.156-.627.926-.627A.691.691,0,0,1,116.214,216.988Z" transform="translate(-109.292 -213.713)" fill="#fff"/>
    <path id="Path_1247" data-name="Path 1247" d="M150.53,218.9c.236,0,1.588.06,1.588-1.323,0-1.293-1.251-1.038-1.251-1.558,0-.258.2-.34.577-.34.148,0,.717.047.717.047l.133-.92a4.958,4.958,0,0,0-.968-.081c-.777,0-1.565.306-1.565,1.359,0,1.193,1.314,1.072,1.314,1.574,0,.335-.368.363-.651.363a3.445,3.445,0,0,1-.932-.159l-.14.909A3.312,3.312,0,0,0,150.53,218.9Z" transform="translate(-141.409 -213.78)" fill="#fff"/>
    <path id="Path_1248" data-name="Path 1248" d="M362.669,205.422l-.226,1.393a1.39,1.39,0,0,0-1.014-.541c-.962,0-1.764,1.15-1.764,2.471,0,.853.427,1.688,1.3,1.688a1.314,1.314,0,0,0,.977-.435l-.046.371h1.021l.8-4.951Zm-.487,2.718c0,.549-.275,1.283-.844,1.283-.378,0-.555-.314-.555-.808,0-.807.365-1.34.826-1.34C361.988,207.275,362.182,207.533,362.182,208.14Z" transform="translate(-332.683 -205.306)" fill="#fff"/>
    <path id="Path_1249" data-name="Path 1249" d="M62.631,210.364l.64-3.738.093,3.738h.724l1.349-3.738-.6,3.738h1.075l.828-4.956H65.079l-1.035,3.04-.054-3.04H62.459l-.84,4.956Z" transform="translate(-61.619 -205.295)" fill="#fff"/>
    <path id="Path_1250" data-name="Path 1250" d="M240.625,219.269c.306-1.723.362-3.122,1.092-2.867a4.005,4.005,0,0,1,.39-1.207,1.1,1.1,0,0,0-.2-.014c-.469,0-.818.637-.818.637l.093-.585H240.2l-.654,4.035Z" transform="translate(-223.439 -214.194)" fill="#fff"/>
    <path id="Path_1251" data-name="Path 1251" d="M303.952,214.654a3.655,3.655,0,0,0-1.271.229l-.152.9a3.342,3.342,0,0,1,1.144-.183c.391,0,.677.043.677.359a.657.657,0,0,1-.035.262s-.308-.026-.452-.026c-.908,0-1.861.384-1.861,1.543a.992.992,0,0,0,1.013,1.122,1.365,1.365,0,0,0,1.077-.478l-.034.4h.925l.412-2.868A1.238,1.238,0,0,0,303.952,214.654Zm.226,2.334c.02.175-.11,1-.744,1a.38.38,0,0,1-.41-.394c0-.285.156-.627.924-.627A.693.693,0,0,1,304.177,216.988Z" transform="translate(-280.238 -213.713)" fill="#fff"/>
    <path id="Path_1252" data-name="Path 1252" d="M337.972,219.269c.306-1.723.362-3.122,1.092-2.867a3.982,3.982,0,0,1,.39-1.207,1.118,1.118,0,0,0-.2-.014c-.47,0-.818.637-.818.637l.094-.585h-.978l-.654,4.035h1.078Z" transform="translate(-311.972 -214.194)" fill="#fff"/>
  </g>
</svg>
