<svg id="mobilepay" xmlns="http://www.w3.org/2000/svg" xmlns:xlink="http://www.w3.org/1999/xlink" width="133.157" height="42.458" viewBox="0 0 133.157 42.458">
  <defs>
    <linearGradient id="linear-gradient" x1="0.487" y1="0.76" x2="0.524" y2="-0.006" gradientUnits="objectBoundingBox">
      <stop offset="0" stop-color="#504678"/>
      <stop offset="0.302" stop-color="#504678" stop-opacity="0.616"/>
      <stop offset="0.608" stop-color="#504678" stop-opacity="0.282"/>
      <stop offset="0.852" stop-color="#504678" stop-opacity="0.075"/>
      <stop offset="1" stop-color="#504678" stop-opacity="0"/>
    </linearGradient>
    <linearGradient id="linear-gradient-3" x1="0.137" y1="0.663" x2="0.574" y2="0.413" gradientUnits="objectBoundingBox">
      <stop offset="0" stop-color="#504678"/>
      <stop offset="0.179" stop-color="#504678" stop-opacity="0.871"/>
      <stop offset="0.526" stop-color="#504678" stop-opacity="0.537"/>
      <stop offset="1" stop-color="#504678" stop-opacity="0"/>
    </linearGradient>
    <linearGradient id="linear-gradient-4" x1="0.477" y1="0.35" x2="0.453" y2="0.184" gradientUnits="objectBoundingBox">
      <stop offset="0" stop-color="#504678"/>
      <stop offset="0.643" stop-color="#504678" stop-opacity="0.333"/>
      <stop offset="1" stop-color="#504678" stop-opacity="0"/>
    </linearGradient>
  </defs>
  <path id="Path_1253" data-name="Path 1253" d="M16.152,42.459A3.631,3.631,0,0,1,12.8,40.243L.279,10.336A3.574,3.574,0,0,1,2.24,5.65L15.354.276a3.637,3.637,0,0,1,4.735,1.941l12.52,29.909a3.574,3.574,0,0,1-1.961,4.684L17.534,42.186A3.641,3.641,0,0,1,16.152,42.459Zm.588-40.527a1.667,1.667,0,0,0-.64.127L2.987,7.434A1.649,1.649,0,0,0,2.082,9.6L14.6,39.506a1.682,1.682,0,0,0,2.186.9L29.9,35.024a1.649,1.649,0,0,0,.905-2.163L18.286,2.955a1.676,1.676,0,0,0-1.545-1.023Z" transform="translate(-0.002 -0.002)" fill="#5a78ff"/>
  <path id="Path_1254" data-name="Path 1254" d="M0,0,1.948.007,2,12.845.048,12.838Z" transform="translate(19.111 4.926) rotate(-22.5)" opacity="0.7" fill="url(#linear-gradient)"/>
  <path id="Path_1255" data-name="Path 1255" d="M0,0,1.948.007,2,14.539.054,14.532Z" transform="translate(31.774 30.135) rotate(157.5)" opacity="0.7" fill="url(#linear-gradient)"/>
  <path id="Path_1256" data-name="Path 1256" d="M35.884,26.6a22.121,22.121,0,0,0-8.932,6.217L21.666,20.185A22.323,22.323,0,0,1,30.6,13.968a21.7,21.7,0,0,1,10.758-1.85l5.287,12.633a22.521,22.521,0,0,0-10.76,1.85Z" transform="translate(-8.19 -4.613)" fill="#5a78ff"/>
  <g id="Group_90" data-name="Group 90" transform="translate(13.476 7.383)" opacity="0.4">
    <path id="Path_1257" data-name="Path 1257" d="M14.884,15.6a22.121,22.121,0,0,0-8.932,6.217L.666,9.185A22.323,22.323,0,0,1,9.6,2.968a21.7,21.7,0,0,1,10.758-1.85l5.287,12.633A22.521,22.521,0,0,0,14.884,15.6Z" transform="translate(-0.666 -0.996)" opacity="0.9" fill="url(#linear-gradient-3)"/>
    <path id="Path_1258" data-name="Path 1258" d="M14.884,15.6a22.121,22.121,0,0,0-8.932,6.217L.666,9.185A22.323,22.323,0,0,1,9.6,2.968a21.7,21.7,0,0,1,10.758-1.85l5.287,12.633A22.521,22.521,0,0,0,14.884,15.6Z" transform="translate(-0.666 -0.996)" opacity="0.7" fill="url(#linear-gradient-4)"/>
  </g>
  <path id="Path_1259" data-name="Path 1259" d="M40.818,34a22.307,22.307,0,0,0-10.656,2.361V23.585a22.519,22.519,0,0,1,10.656-2.361,21.715,21.715,0,0,1,10.655,2.364V36.361A22.508,22.508,0,0,0,40.818,34Zm20.738.012L64.84,23.736a.341.341,0,0,1,.3-.259h1.648a.4.4,0,0,1,.323.259l2.557,6.482c.05.129.18.142.224,0l2.538-6.482a.4.4,0,0,1,.323-.259h1.648a.341.341,0,0,1,.3.259l3.247,10.273a.244.244,0,0,1-.02.244.25.25,0,0,1-.223.107H75.757a.286.286,0,0,1-.292-.222l-2.084-6.672c-.031-.129-.18-.129-.224,0l-2.488,6.623a.366.366,0,0,1-.355.271H69.163c-.18,0-.274-.1-.342-.271l-2.538-6.623c-.05-.129-.18-.129-.211,0l-2.134,6.672a.292.292,0,0,1-.3.222H61.767a.243.243,0,0,1-.2-.117A.238.238,0,0,1,61.556,34.009Zm17.026-3.693a4.307,4.307,0,0,1,2.627-4.042,4.389,4.389,0,0,1,4.774.878,4.276,4.276,0,0,1,.984,4.706,4.355,4.355,0,0,1-4.031,2.68,4.236,4.236,0,0,1-3.091-1.189A4.145,4.145,0,0,1,78.581,30.316Zm6.469,0a2.139,2.139,0,1,0-2.115,2.259,2.182,2.182,0,0,0,2.1-2.259ZM91.122,33.7c-.162-.129-.3-.08-.3.142v.209a.3.3,0,0,1-.292.3H89.007a.316.316,0,0,1-.3-.3V23.773a.316.316,0,0,1,.3-.3h1.6a.3.3,0,0,1,.292.3V26.7c0,.209.143.271.373.111a3.577,3.577,0,0,1,2.121-.7A4.015,4.015,0,0,1,97.3,30.335a4.013,4.013,0,0,1-1.093,2.94,4.1,4.1,0,0,1-2.889,1.282,3.329,3.329,0,0,1-2.2-.862ZM95.1,30.335a2.111,2.111,0,0,0-1.017-1.968,2.159,2.159,0,0,0-2.233,0,2.38,2.38,0,0,0-.427,3.519,2.175,2.175,0,0,0,1.532.671,2.207,2.207,0,0,0,1.545-.678,2.16,2.16,0,0,0,.6-1.563Zm3.539-6.112a1.244,1.244,0,1,1,1.244,1.231A1.238,1.238,0,0,1,98.642,24.222Zm.112,9.849V26.623a.3.3,0,0,1,.292-.3h1.6a.319.319,0,0,1,.228.083.313.313,0,0,1,.1.218v7.423a.316.316,0,0,1-.3.3H99.047a.3.3,0,0,1-.292-.3Zm4-2.438v-7.86a.3.3,0,0,1,.292-.3h1.6a.316.316,0,0,1,.3.3v7.91c0,.511.224.849.79.849a.3.3,0,0,1,.3.3v1.311a.3.3,0,0,1-.3.289C103.613,34.434,102.754,33.745,102.754,31.633Zm3.888-1.268a4.205,4.205,0,0,1,8.41.031c0,.289-.081.529-.373.529h-5.561c-.143,0-.193.08-.18.209a1.862,1.862,0,0,0,1.991,1.582,1.987,1.987,0,0,0,1.536-.689.624.624,0,0,1,.516-.259h1.487c.261,0,.373.179.274.431a4.275,4.275,0,0,1-4.784,2.252,4.226,4.226,0,0,1-3.3-4.1Zm5.9-.739c.112,0,.162-.049.143-.179a1.861,1.861,0,0,0-1.866-1.5,1.912,1.912,0,0,0-1.866,1.459c-.031.111,0,.222.131.222Zm3.851,4.42V23.773a.3.3,0,0,1,.292-.3h5.095c2.326,0,3.913,1.342,3.913,3.6s-1.8,3.65-4.025,3.65h-2.7a.269.269,0,0,0-.221.08.263.263,0,0,0-.072.222v3.022a.316.316,0,0,1-.3.3h-1.68a.3.3,0,0,1-.3-.3Zm5.275-5.183a1.744,1.744,0,0,0,1.7-1.779,1.634,1.634,0,0,0-.484-1.21,1.67,1.67,0,0,0-1.221-.483h-2.718c-.193,0-.274.1-.274.289v2.911c0,.191.081.289.274.289Zm4.808,1.453a4.044,4.044,0,0,1,1.113-2.942,4.132,4.132,0,0,1,2.9-1.281,3.279,3.279,0,0,1,2.152.819c.143.129.3.111.3-.08v-.209a.291.291,0,0,1,.292-.289h1.518a.316.316,0,0,1,.3.3v5.281c0,.4.143.579.423.616a.279.279,0,0,1,.274.259v1.391a.272.272,0,0,1-.274.271,2.112,2.112,0,0,1-2.053-.911c-.1-.16-.211-.191-.373-.031a3.59,3.59,0,0,1-2.606,1.071,4.118,4.118,0,0,1-2.895-1.3A4.031,4.031,0,0,1,126.479,30.316Zm6.469,0a2.1,2.1,0,0,0-1.014-1.962,2.153,2.153,0,0,0-2.227,0,2.1,2.1,0,0,0-1.014,1.962,2.1,2.1,0,0,0,1.014,1.962,2.153,2.153,0,0,0,2.227,0A2.1,2.1,0,0,0,132.948,30.316Zm3.564,6.851V35.856a.3.3,0,0,1,.3-.289,2.27,2.27,0,0,0,2.326-1.539.878.878,0,0,0-.062-.616l-2.973-6.66a.287.287,0,0,1,0-.29.293.293,0,0,1,.257-.14h1.6c.162,0,.261.129.323.289l1.866,4.259c.131.339.342.32.485,0l1.779-4.272c.062-.16.143-.259.3-.259h1.536a.281.281,0,0,1,.243.116.275.275,0,0,1,.031.265l-3.061,7.165c-1.113,2.61-2.3,3.582-4.659,3.582a.316.316,0,0,1-.3-.3Z" transform="translate(-11.401 -8.158)" fill="#5a78ff"/>
</svg>
