<svg id="neteller" xmlns="http://www.w3.org/2000/svg" width="97.196" height="16.229" viewBox="0 0 97.196 16.229">
  <path id="Path_1260" data-name="Path 1260" d="M95.063,58.8a4.049,4.049,0,0,1-2.313.537H91.723l.787-4.207h.755a3.559,3.559,0,0,1,1.92.415,1.638,1.638,0,0,1,.739,1.467,2.043,2.043,0,0,1-.861,1.788m-61.244,5.28H25.874l.514-2.75h4.984l.566-3.1H27l.477-2.722H35.41Zm65.524-10.93a9.455,9.455,0,0,0-5.254-1.192H88.02L85.764,64.084H77.812l.51-2.75h4.79l.57-3.089-4.788.009.513-2.738H84.34L85,51.962H74.976l-2.142,11.5H69.16l2.157-11.5H66.078l-2.142,11.5H60.353l2.159-11.5H57.279L55.017,64.084H47.009l.5-2.75h4.812l.567-3.071-4.8,0,.51-2.744h4.988l.653-3.553H23.019l-1.777,9.606L17.7,51.962H12.268L9.344,67.639h5.189l1.77-9.87,3.436,9.87h18.6L40.6,55.515h2.91L41.246,67.639H90.184L91.6,59.985l2.3,7.654h5.192l-2.379-6.254.543-.116a4.661,4.661,0,0,0,2.783-1.618,4.966,4.966,0,0,0,.982-3.16,3.734,3.734,0,0,0-1.676-3.337" transform="translate(-9.344 -51.962)" fill="#8dc640"/>
  <path id="Path_1261" data-name="Path 1261" d="M239.185,84.435l.707-.036a1.05,1.05,0,0,0,.351-.064.367.367,0,0,0,.185-.158.391.391,0,0,0,.054-.224.372.372,0,0,0-.143-.283.611.611,0,0,0-.411-.092l-.787.04Zm-.261,1.392-.127-2.466,1.106-.055a1.465,1.465,0,0,1,.508.041.549.549,0,0,1,.289.221.675.675,0,0,1,.122.365.613.613,0,0,1-.148.451.873.873,0,0,1-.517.255.9.9,0,0,1,.2.112,1.678,1.678,0,0,1,.29.315l.465.649-.411.021-.356-.5q-.156-.216-.255-.328a.743.743,0,0,0-.176-.156.51.51,0,0,0-.153-.059,1.032,1.032,0,0,0-.185,0l-.381.019.055,1.1Z" transform="translate(-144.907 -70.613)" fill="#8dc640"/>
  <path id="Path_1262" data-name="Path 1262" d="M235.894,83.06a1.887,1.887,0,0,1,.5-1.377,1.938,1.938,0,0,1,3.365,1.182c0,.032,0,.067,0,.1a1.934,1.934,0,0,1-3.864.1m1.811-2.4a2.328,2.328,0,0,0-1.609.758,2.277,2.277,0,0,0-.6,1.663,2.329,2.329,0,0,0,4.651-.236h0a2.322,2.322,0,0,0-2.445-2.184" transform="translate(-142.957 -69.039)" fill="#8dc640"/>
</svg>
