<svg xmlns="http://www.w3.org/2000/svg" width="12.411" height="12.602" viewBox="0 0 12.411 12.602">
  <g id="open-menu" transform="translate(0 12.602) rotate(-90)">
    <path id="Path_1080" data-name="Path 1080" d="M10.294,14.729a1.071,1.071,0,0,0,0,1.509l5.291,5.275a1.066,1.066,0,0,0,1.471.033l5.214-5.2a1.065,1.065,0,1,0-1.5-1.509l-4.478,4.412L11.8,14.723A1.066,1.066,0,0,0,10.294,14.729Z" transform="translate(-9.983 -9.413)"/>
    <path id="Path_1081" data-name="Path 1081" d="M10.294,14.729a1.071,1.071,0,0,0,0,1.509l5.291,5.275a1.066,1.066,0,0,0,1.471.033l5.214-5.2a1.065,1.065,0,1,0-1.5-1.509l-4.478,4.412L11.8,14.723A1.066,1.066,0,0,0,10.294,14.729Z" transform="translate(-9.983 -14.413)"/>
  </g>
</svg>
