<svg id="paysafecard" xmlns="http://www.w3.org/2000/svg" width="132.595" height="22.261" viewBox="0 0 132.595 22.261">
  <path id="Path_1263" data-name="Path 1263" d="M98.5,302.461a3.564,3.564,0,0,1,.685-2.3,3.047,3.047,0,0,1,.862-.547,2.712,2.712,0,0,1,1.061-.219h4.133c1.812.022,2.74.984,2.785,2.952v6.035a2.459,2.459,0,0,1-.84,1.793,2.7,2.7,0,0,1-1.878.831h-3.889v4.352H98.5Zm6.608.569c-.022-.459-.221-.678-.663-.7h-2.254a.814.814,0,0,0-.84.853v4c.022.547.309.831.906.853h2.055a.64.64,0,0,0,.53-.241.521.521,0,0,0,.221-.459l.044-4.308Z" transform="translate(-81.218 -293.102)" fill="#128ac7"/>
  <path id="Path_1264" data-name="Path 1264" d="M158.786,302.964c.022-.437-.243-.656-.773-.634H152.2V299.4h6.563c1.9.044,2.873.94,2.917,2.755v6.123a2.823,2.823,0,0,1-.707,1.924,2.485,2.485,0,0,1-1.878.809h-3.956c-1.923-.022-2.917-.875-2.939-2.624v-2.362a2.484,2.484,0,0,1,2.785-2.755h3.845l-.044-.306Zm-3.757,4.5a.416.416,0,0,0,.221.394.823.823,0,0,0,.53.2h2.21c.508,0,.773-.2.773-.569v-.831c0-.437-.265-.678-.8-.678H155.78a1,1,0,0,0-.6.131,1.058,1.058,0,0,0-.155.634v.722Z" transform="translate(-123.051 -293.102)" fill="#128ac7"/>
  <path id="Path_1265" data-name="Path 1265" d="M211.368,312.333a.909.909,0,0,0,.575-.241.588.588,0,0,0,.221-.481v-.678h-3.691a2.681,2.681,0,0,1-2.055-.809,2.74,2.74,0,0,1-.619-.962,3,3,0,0,1-.2-1.181v-8.638H208.5v7.719c0,.634.243.94.773.94H211.3a.87.87,0,0,0,.641-.241.589.589,0,0,0,.243-.5V299.3h2.873v12.771a3.6,3.6,0,0,1-.729,2.274,2.451,2.451,0,0,1-1.967.875h-6.74v-2.93h5.746v.044Z" transform="translate(-164.65 -293.024)" fill="#128ac7"/>
  <path id="Path_1266" data-name="Path 1266" d="M258.6,307.981h5.149c.464-.022.707-.219.729-.547v-.262a.565.565,0,0,0-.066-.241c-.11-.219-.243-.328-.42-.328h-2.541a2.853,2.853,0,0,1-1.945-.765,2.212,2.212,0,0,1-.84-1.706v-2.209c.044-1.728.972-2.58,2.807-2.624h5.967v2.93h-5.061c-.6,0-.884.175-.884.525v.306c0,.372.309.547.906.547h2.541a2.364,2.364,0,0,1,1.746.787,2.635,2.635,0,0,1,.751,1.793v2.143a2.746,2.746,0,0,1-.84,1.793,2.289,2.289,0,0,1-.818.612,3.172,3.172,0,0,1-1.127.153h-6.033l-.022-2.908Z" transform="translate(-205.938 -293.024)" fill="#128ac7"/>
  <path id="Path_1267" data-name="Path 1267" d="M314.586,302.964c.022-.437-.243-.656-.773-.634H308V299.4h6.564c1.9.044,2.873.94,2.917,2.755v6.123a2.823,2.823,0,0,1-.707,1.924,2.485,2.485,0,0,1-1.878.809h-3.956c-1.923-.022-2.917-.875-2.939-2.624v-2.362a2.484,2.484,0,0,1,2.785-2.755h3.845l-.044-.306Zm-3.757,4.5a.416.416,0,0,0,.221.394.823.823,0,0,0,.53.2h2.21c.508,0,.751-.2.773-.569v-.831c0-.437-.265-.678-.8-.678H311.58a1,1,0,0,0-.6.131,1.057,1.057,0,0,0-.155.634v.722Z" transform="translate(-244.421 -293.102)" fill="#128ac7"/>
  <path id="Path_1268" data-name="Path 1268" d="M361.322,282.246a2.414,2.414,0,0,1,.884-1.9,3.355,3.355,0,0,1,2.21-.743h1.834v2.843h-1.127q-.928.033-.928.853v.634h2.033v2.93h-2.033v8.66H361.3l.022-13.274Z" transform="translate(-285.942 -277.632)" fill="#128ac7"/>
  <path id="Path_1269" data-name="Path 1269" d="M394.317,306.876v.2a.758.758,0,0,0,.2.547.418.418,0,0,0,.376.262h5.923v2.93h-6.3a5.3,5.3,0,0,1-1.348-.153,2.479,2.479,0,0,1-.928-.547,2.533,2.533,0,0,1-.641-.962,4.492,4.492,0,0,1-.177-1.356l-.022-5.882c.044-1.771.972-2.668,2.807-2.712H398.1a2.5,2.5,0,0,1,2.74,2.8v2.318Zm3.6-4.133v-.066a.428.428,0,0,0-.2-.372.923.923,0,0,0-.508-.131H395.2a.95.95,0,0,0-.641.219.613.613,0,0,0-.309.525V304.1Z" transform="translate(-309.39 -292.946)" fill="#128ac7"/>
  <path id="Path_1270" data-name="Path 1270" d="M449.866,310.834a6.518,6.518,0,0,1-1.193-.109,2.4,2.4,0,0,1-1.127-.525,2.877,2.877,0,0,1-.84-1.137,4.007,4.007,0,0,1-.221-1.421v-5.467a3.952,3.952,0,0,1,.133-1.181,2.175,2.175,0,0,1,.619-.984,2.555,2.555,0,0,1,1.083-.678,5.368,5.368,0,0,1,1.238-.131H454v.678h-4.309a3,3,0,0,0-1.79.459,2.091,2.091,0,0,0-.685,1.749v5.467a3.8,3.8,0,0,0,.177,1.115,2.071,2.071,0,0,0,.619.94,2.732,2.732,0,0,0,.928.437,5.171,5.171,0,0,0,1.017.087h4.133v.678l-4.221.022Z" transform="translate(-352.298 -292.946)" fill="#128ac7"/>
  <path id="Path_1271" data-name="Path 1271" d="M501.814,307.272a8.563,8.563,0,0,1-.088,1.159,2.683,2.683,0,0,1-.575,1.072,2.862,2.862,0,0,1-2.254.918H495.45a3.039,3.039,0,0,1-2.188-.809,2.785,2.785,0,0,1-.862-2.165v-1.771c.044-1.99,1.039-3.018,3.005-3.061h5.746v-.787a2.8,2.8,0,0,0-.552-1.684,1.792,1.792,0,0,0-.84-.634,5.432,5.432,0,0,0-1.083-.131H492.4V298.7h5.945a10.207,10.207,0,0,1,1.481.109,1.807,1.807,0,0,1,.641.262,2.121,2.121,0,0,1,.575.525,3.706,3.706,0,0,1,.8,2.34l-.022,5.336Zm-.707-3.936H495.3a2.261,2.261,0,0,0-1.635.634,2.384,2.384,0,0,0-.6,1.728v1.749a4.071,4.071,0,0,0,.11.94,1.479,1.479,0,0,0,.53.787,2.553,2.553,0,0,0,1.657.612h3.514a2.023,2.023,0,0,0,2.21-2.318v-4.133Z" transform="translate(-388.07 -292.555)" fill="#128ac7"/>
  <path id="Path_1272" data-name="Path 1272" d="M553.545,299.778c-1.591.044-2.409.9-2.365,2.624v8.375H550.5V302.4c-.044-2.187,1.017-3.3,3.182-3.3h.773v.678Z" transform="translate(-433.325 -292.868)" fill="#128ac7"/>
  <path id="Path_1273" data-name="Path 1273" d="M586.632,293.846c-.066,2.209-1.26,3.3-3.558,3.236H580.51a7.138,7.138,0,0,1-1.437-.131,2.688,2.688,0,0,1-1.282-.809,2.458,2.458,0,0,1-.575-1.115,4.66,4.66,0,0,1-.133-1.268v-5.008c.044-2.252,1.171-3.368,3.425-3.346h5.414v-3.8h.685l.022,12.246Zm-.685-7.741h-5.481a4.023,4.023,0,0,0-1.061.131,1.863,1.863,0,0,0-.972.59,1.98,1.98,0,0,0-.53.875,3.167,3.167,0,0,0-.133,1.072v5.336a1.9,1.9,0,0,0,.8,1.815,3.077,3.077,0,0,0,.862.35,5.408,5.408,0,0,0,1.061.131h2.387a3.793,3.793,0,0,0,2.188-.612,2.327,2.327,0,0,0,.862-2.012l.022-7.676Z" transform="translate(-454.036 -279.195)" fill="#128ac7"/>
  <g id="Group_91" data-name="Group 91" transform="translate(0)">
    <path id="Path_1274" data-name="Path 1274" d="M22.706,276.461a4.145,4.145,0,0,1,.685-.219,4.415,4.415,0,0,1,8.619,0,2.937,2.937,0,0,1,1.591.765,5.958,5.958,0,0,0-.044-1.093,5.885,5.885,0,0,0-11.735.284c-.022.262-.022.547-.022.831A2.894,2.894,0,0,1,22.706,276.461Z" transform="translate(-21.469 -270.6)" fill="#e00d1d"/>
    <path id="Path_1275" data-name="Path 1275" d="M29.935,299.4H22.908a2.712,2.712,0,0,0-1.061.219,2.762,2.762,0,0,0-.862.547,3.564,3.564,0,0,0-.685,2.3v5.445a3.522,3.522,0,0,0,.685,2.3,3.047,3.047,0,0,0,.862.547,2.712,2.712,0,0,0,1.061.219h7.05c1.812-.022,2.762-1.006,2.785-2.952V302.33C32.7,300.384,31.77,299.422,29.935,299.4Z" transform="translate(-20.3 -293.102)" fill="#e00d1d"/>
  </g>
</svg>
