<svg xmlns="http://www.w3.org/2000/svg" width="98.283" height="13.866" viewBox="0 0 98.283 13.866">
  <g id="Rating_stars" data-name="Rating stars" transform="translate(-4.462 -23.159)">
    <g id="rating-star" transform="translate(4.462 23.159)">
      <path id="Icon_ionic-ios-star" data-name="Icon ionic-ios-star" d="M15.991,8.175H11.3L9.876,3.728a.509.509,0,0,0-.969,0L7.482,8.175H2.76a.524.524,0,0,0-.51.533.409.409,0,0,0,.01.09.518.518,0,0,0,.214.377l3.854,2.84-1.479,4.5a.549.549,0,0,0,.175.6.483.483,0,0,0,.287.13.608.608,0,0,0,.319-.12l3.762-2.8,3.762,2.8a.581.581,0,0,0,.319.12.449.449,0,0,0,.284-.13.542.542,0,0,0,.175-.6l-1.479-4.5,3.823-2.866.092-.083a.569.569,0,0,0,.166-.357A.551.551,0,0,0,15.991,8.175Z" transform="translate(-2.25 -3.375)" fill="#a10011"/>
    </g>
    <g id="rating-star-2" data-name="rating-star" transform="translate(25.462 23.159)">
      <path id="Icon_ionic-ios-star-2" data-name="Icon ionic-ios-star" d="M15.991,8.175H11.3L9.876,3.728a.509.509,0,0,0-.969,0L7.482,8.175H2.76a.524.524,0,0,0-.51.533.409.409,0,0,0,.01.09.518.518,0,0,0,.214.377l3.854,2.84-1.479,4.5a.549.549,0,0,0,.175.6.483.483,0,0,0,.287.13.608.608,0,0,0,.319-.12l3.762-2.8,3.762,2.8a.581.581,0,0,0,.319.12.449.449,0,0,0,.284-.13.542.542,0,0,0,.175-.6l-1.479-4.5,3.823-2.866.092-.083a.569.569,0,0,0,.166-.357A.551.551,0,0,0,15.991,8.175Z" transform="translate(-2.25 -3.375)" fill="#a10011"/>
    </g>
    <g id="rating-star-3" data-name="rating-star" transform="translate(46.462 23.159)">
      <path id="Icon_ionic-ios-star-3" data-name="Icon ionic-ios-star" d="M15.991,8.175H11.3L9.876,3.728a.509.509,0,0,0-.969,0L7.482,8.175H2.76a.524.524,0,0,0-.51.533.409.409,0,0,0,.01.09.518.518,0,0,0,.214.377l3.854,2.84-1.479,4.5a.549.549,0,0,0,.175.6.483.483,0,0,0,.287.13.608.608,0,0,0,.319-.12l3.762-2.8,3.762,2.8a.581.581,0,0,0,.319.12.449.449,0,0,0,.284-.13.542.542,0,0,0,.175-.6l-1.479-4.5,3.823-2.866.092-.083a.569.569,0,0,0,.166-.357A.551.551,0,0,0,15.991,8.175Z" transform="translate(-2.25 -3.375)" fill="#a10011"/>
    </g>
    <g id="rating-star-4" data-name="rating-star" transform="translate(67.462 23.159)">
      <path id="Icon_ionic-ios-star-4" data-name="Icon ionic-ios-star" d="M15.991,8.175H11.3L9.876,3.728a.509.509,0,0,0-.969,0L7.482,8.175H2.76a.524.524,0,0,0-.51.533.409.409,0,0,0,.01.09.518.518,0,0,0,.214.377l3.854,2.84-1.479,4.5a.549.549,0,0,0,.175.6.483.483,0,0,0,.287.13.608.608,0,0,0,.319-.12l3.762-2.8,3.762,2.8a.581.581,0,0,0,.319.12.449.449,0,0,0,.284-.13.542.542,0,0,0,.175-.6l-1.479-4.5,3.823-2.866.092-.083a.569.569,0,0,0,.166-.357A.551.551,0,0,0,15.991,8.175Z" transform="translate(-2.25 -3.375)" fill="#a10011"/>
    </g>
    <g id="rating-star-5" data-name="rating-star" transform="translate(88.462 23.159)">
      <path id="Icon_ionic-ios-star-5" data-name="Icon ionic-ios-star" d="M15.991,8.175H11.3L9.876,3.728a.509.509,0,0,0-.969,0L7.482,8.175H2.76a.524.524,0,0,0-.51.533.409.409,0,0,0,.01.09.518.518,0,0,0,.214.377l3.854,2.84-1.479,4.5a.549.549,0,0,0,.175.6.483.483,0,0,0,.287.13.608.608,0,0,0,.319-.12l3.762-2.8,3.762,2.8a.581.581,0,0,0,.319.12.449.449,0,0,0,.284-.13.542.542,0,0,0,.175-.6l-1.479-4.5,3.823-2.866.092-.083a.569.569,0,0,0,.166-.357A.551.551,0,0,0,15.991,8.175Z" transform="translate(-2.25 -3.375)" fill="#a10011"/>
    </g>
  </g>
</svg>
