<svg xmlns="http://www.w3.org/2000/svg" width="72.388" height="86.777" viewBox="0 0 72.388 86.777">
  <g id="sceptic-person" transform="translate(-42.449 -0.001)">
    <path id="Path_1168" data-name="Path 1168" d="M99.947,373.8h3.075c5.524-7.084,26.165-2.881,19.441,20.835H80.506C73.783,370.919,94.423,366.716,99.947,373.8Z" transform="translate(-30.5 -307.858)" fill="#bcd151"/>
    <path id="Path_1169" data-name="Path 1169" d="M245.219,371.1c6.7,1.717,12.954,8.921,8.809,23.54h6.338C265.858,375.262,253.09,368.91,245.219,371.1Z" transform="translate(-168.403 -307.858)" fill="#8d9f25"/>
    <path id="Path_1170" data-name="Path 1170" d="M179.755,350.914h0a6.338,6.338,0,0,0,6.338-6.338v-7.844H173.417v7.844A6.338,6.338,0,0,0,179.755,350.914Z" transform="translate(-108.77 -279.66)" fill="#f6bb93"/>
    <path id="Path_1171" data-name="Path 1171" d="M173.417,342.986a40.519,40.519,0,0,0,12.676.721v-6.975H173.417v6.253Z" transform="translate(-108.77 -279.661)" fill="#e49775"/>
    <g id="Group_79" data-name="Group 79" transform="translate(43.848 33.375)">
      <path id="Path_1172" data-name="Path 1172" d="M56.056,207.625h7.082v-10.71H56.056A5.355,5.355,0,0,0,50.7,202.27h0A5.355,5.355,0,0,0,56.056,207.625Z" transform="translate(-50.701 -196.915)" fill="#f6bb93"/>
      <path id="Path_1173" data-name="Path 1173" d="M304.62,207.625h-7.082v-10.71h7.082a5.355,5.355,0,0,1,5.355,5.355h0A5.355,5.355,0,0,1,304.62,207.625Z" transform="translate(-255.703 -196.915)" fill="#f6bb93"/>
    </g>
    <path id="Path_1174" data-name="Path 1174" d="M51.925,41.963C50.6,36.246,48.653,28.627,47.773,24.91,42.116,20,40.946,9.617,44.366,2.239A1.8,1.8,0,0,1,47.128,1.6c2.248,1.827,6.682,3.559,14.972.518C78.243-3.806,91.837,4.166,92.618,8.248c.873,0,5.112.6,5.112,4.77,0,3.546-5.828,22.432-8.34,28.946H51.925Z" transform="translate(0 0)" fill="#52668d"/>
    <path id="Path_1175" data-name="Path 1175" d="M237.509,8.247c-.613-3.208-9.141-8.818-20.6-8.2,8.648.526,14.819,5.326,15.311,8.2a4.629,4.629,0,0,1,4.573,4.77c0,3.546-5.213,22.432-7.461,28.946h4.948c2.513-6.514,8.34-25.4,8.34-28.946C242.622,8.848,238.382,8.247,237.509,8.247Z" transform="translate(-144.892 0)" fill="#243b5d"/>
    <path id="Path_1176" data-name="Path 1176" d="M92.978,138.167c0,14.1,39.942,14.1,39.942,0,0-8.082-1.081-21.765-3.436-27.084a7.775,7.775,0,0,0-2.77-3.153,5.108,5.108,0,0,0-2.622-.787,6.984,6.984,0,0,0-2.968.787c-2.549,1.2-5.121,3.367-8.175,3.367s-5.626-2.162-8.175-3.367a6.983,6.983,0,0,0-2.968-.787,5.107,5.107,0,0,0-2.622.787,7.784,7.784,0,0,0-2.776,3.159C94.063,116.378,92.978,129.932,92.978,138.167Z" transform="translate(-41.965 -88.982)" fill="#f6bb93"/>
    <path id="Path_1177" data-name="Path 1177" d="M220.837,111.083a7.775,7.775,0,0,0-2.77-3.153,5.108,5.108,0,0,0-2.622-.787,6.085,6.085,0,0,0-2.163.443,5.321,5.321,0,0,1,.577.344,7.541,7.541,0,0,1,2.424,3.153c2.061,5.319,3.007,19,3.007,27.084,0,6.739-7.982,10.258-16.317,10.557,10.408.327,21.3-3.192,21.3-10.557C224.273,130.085,223.192,116.4,220.837,111.083Z" transform="translate(-133.317 -88.982)" fill="#e49775"/>
    <g id="Group_80" data-name="Group 80" transform="translate(60.136 34.596)">
      <path id="Path_1178" data-name="Path 1178" d="M260.677,208.775a1.309,1.309,0,0,1-1.309-1.309v-2.037a1.309,1.309,0,0,1,2.619,0v2.037A1.309,1.309,0,0,1,260.677,208.775Z" transform="translate(-240.29 -204.119)" fill="#243b5d"/>
      <path id="Path_1179" data-name="Path 1179" d="M148.112,208.775a1.309,1.309,0,0,1-1.309-1.309v-2.037a1.309,1.309,0,0,1,2.619,0v2.037A1.309,1.309,0,0,1,148.112,208.775Z" transform="translate(-146.803 -204.119)" fill="#243b5d"/>
    </g>
    <path id="Path_1180" data-name="Path 1180" d="M244.007,178.937a6.922,6.922,0,0,1-4.04-1.233,1.31,1.31,0,1,1,1.538-2.12,4.607,4.607,0,0,0,5,0,1.31,1.31,0,1,1,1.538,2.12A6.923,6.923,0,0,1,244.007,178.937Z" transform="translate(-163.593 -145.617)" fill="#243b5d"/>
    <path id="Path_1181" data-name="Path 1181" d="M136,178.939a1.3,1.3,0,0,1-.768-.25,4.608,4.608,0,0,0-5,0,1.31,1.31,0,0,1-1.538-2.12,7.236,7.236,0,0,1,8.08,0,1.31,1.31,0,0,1-.77,2.37Z" transform="translate(-71.173 -145.619)" fill="#243b5d"/>
    <path id="Path_1182" data-name="Path 1182" d="M337.066,11.183a12.378,12.378,0,0,0-3.5,24.486,9.111,9.111,0,0,1-2.228,3.234.664.664,0,0,0,.5,1.15,9.063,9.063,0,0,0,7.278-4.615,12.38,12.38,0,0,0-2.046-24.255Z" transform="translate(-233.375 -9.235)" fill="#7cccf2"/>
    <path id="Path_1183" data-name="Path 1183" d="M375.784,11.183a12.258,12.258,0,0,0-2.412,0l.051,0c5.7.693,9.8,6.888,9.145,13.743-.495,5.164-3.55,9.213-7.453,10.512a7.761,7.761,0,0,1-5.013,4.447l-.033.007a.645.645,0,0,0,.483.16,9.063,9.063,0,0,0,7.278-4.615,12.38,12.38,0,0,0-2.046-24.255Z" transform="translate(-272.093 -9.236)" fill="#4facdb"/>
    <path id="Path_1184" data-name="Path 1184" d="M112.119,473.786V467.3a1.309,1.309,0,0,1,2.619,0v6.489Zm33.454,0V467.3a1.309,1.309,0,1,0-2.619,0v6.489Z" transform="translate(-57.862 -387.009)" fill="#8d9f25"/>
    <path id="Path_1185" data-name="Path 1185" d="M299.282,467.856a1.309,1.309,0,0,0-.777-1.2,33.25,33.25,0,0,1-1.309,7.685h2.086v-6.489Z" transform="translate(-211.571 -387.567)" fill="#828c1f"/>
    <g id="Group_81" data-name="Group 81" transform="translate(98.453 6.163)">
      <path id="Path_1186" data-name="Path 1186" d="M386.225,117.831a1.309,1.309,0,0,1-1.309-1.309v-.175a1.309,1.309,0,0,1,2.619,0v.175A1.309,1.309,0,0,1,386.225,117.831Z" transform="translate(-382.876 -101.703)" fill="#243b5d"/>
      <path id="Path_1187" data-name="Path 1187" d="M376.231,48.817a1.309,1.309,0,0,1-1.309-1.309V45.2a2.014,2.014,0,0,1,2.012-2.012h.488a2.1,2.1,0,0,0,2.1-2.241,2.1,2.1,0,0,0-4.091-.546,1.31,1.31,0,0,1-2.478-.849,4.724,4.724,0,0,1,9.183,1.233,4.684,4.684,0,0,1-1.271,3.533,4.744,4.744,0,0,1-3.324,1.488v1.7A1.309,1.309,0,0,1,376.231,48.817Z" transform="translate(-372.882 -36.359)" fill="#243b5d"/>
    </g>
    <path id="Path_1188" data-name="Path 1188" d="M8.381,4.081A1.306,1.306,0,0,1,7.455,3.7a3.7,3.7,0,0,0-5.219,0A1.31,1.31,0,0,1,.384,1.845a6.317,6.317,0,0,1,8.923,0,1.31,1.31,0,0,1-.926,2.236Z" transform="matrix(-0.966, 0.259, -0.259, -0.966, 81.111, 48.613)" fill="#243b5d"/>
  </g>
</svg>
