<svg xmlns="http://www.w3.org/2000/svg" width="63.471" height="21.458" viewBox="0 0 63.471 21.458">
  <path id="skrill" d="M103.474,55.091l5.282-.936V74.219h-5.282Zm7.712,0V74.219h5.285V54.154ZM95.95,74.219h5.285V59.544H95.95Zm-34.919-12.6c-.669-.044-2.214-.141-2.214-1.521,0-1.662,2.225-1.662,3.062-1.662a18.587,18.587,0,0,1,4.728.831s.759.263,1.4.535l.059.017V55.268l-.081-.025a19.067,19.067,0,0,0-6.919-1.089C55.111,54.154,53,57.589,53,60.53c0,1.7.733,5.686,7.555,6.146.579.036,2.113.122,2.113,1.546,0,1.174-1.257,1.87-3.37,1.87a16.764,16.764,0,0,1-5.929-1.138v4.689a27.956,27.956,0,0,0,7.045.795c5.825,0,8.434-3.249,8.434-6.467C68.846,64.317,65.926,61.943,61.031,61.619Zm31.941-2.291c-4.885.155-7.362,2.324-7.362,6.634v8.257h5.33V67.485c0-2.581.341-3.687,3.437-3.792V59.4A7.609,7.609,0,0,0,92.972,59.328Zm-14.334.2a18.152,18.152,0,0,1-3.009,5.108V54.154l-5.453,1.066v19h5.453V68.347a20.3,20.3,0,0,1,2.36,5.872h6.53c-.647-2.656-3.471-7.559-3.471-7.559a23.555,23.555,0,0,0,3.826-7.135H78.637Zm19.955-1.393a2.577,2.577,0,1,0-2.6-2.576A2.593,2.593,0,0,0,98.592,58.135Z" transform="translate(-53 -52.98)" fill="#862165"/>
</svg>
