<svg id="support-phone" xmlns="http://www.w3.org/2000/svg" width="33.096" height="29.887" viewBox="0 0 33.096 29.887">
  <path id="Path_1347" data-name="Path 1347" d="M194.609,31h-7.757a6.982,6.982,0,0,0-.97,13.876v3.06a1,1,0,0,0,.6.92.951.951,0,0,0,1.057-.216l3.193-3.28.4-.412h3.477a6.975,6.975,0,0,0,0-13.947Z" transform="translate(-168.365 -31)" fill="#fed843"/>
  <path id="Path_1348" data-name="Path 1348" d="M349.878,44.947a6.975,6.975,0,0,0,0-13.947H346V45.36l.4-.413Z" transform="translate(-323.635 -31)" fill="#fabe2c"/>
  <path id="Path_1349" data-name="Path 1349" d="M24.692,118.33v3.985a2.942,2.942,0,0,1-2.9,2.989c-5.586,0-11.035-2.713-15.088-6.861A22.593,22.593,0,0,1,0,102.975,2.941,2.941,0,0,1,2.909,100H6.787a.971.971,0,0,1,.919.681l1.939,5.963a1.02,1.02,0,0,1-.112.868l-1.644,2.535a15.586,15.586,0,0,0,3,4.1,15.815,15.815,0,0,0,4.026,3.048l2.467-1.69a.949.949,0,0,1,.845-.116l5.818,1.992a.981.981,0,0,1,.649.944Z" transform="translate(0 -95.417)" fill="#ff641a"/>
  <path id="Path_1350" data-name="Path 1350" d="M121.783,317.24v3.985a2.942,2.942,0,0,1-2.9,2.989c-5.586,0-11.035-2.713-15.088-6.861l4.178-4.293A15.816,15.816,0,0,0,112,316.108l2.467-1.69a.949.949,0,0,1,.845-.116l5.818,1.992A.981.981,0,0,1,121.783,317.24Z" transform="translate(-97.09 -294.327)" fill="#f03800"/>
  <ellipse id="Ellipse_59" data-name="Ellipse 59" cx="1.011" cy="0.519" rx="1.011" ry="0.519" transform="translate(17.43 6.545)" fill="#613d5c"/>
  <ellipse id="Ellipse_60" data-name="Ellipse 60" cx="1.011" cy="0.519" rx="1.011" ry="0.519" transform="translate(21.472 6.545)" fill="#613d5c"/>
  <g id="Group_119" data-name="Group 119" transform="translate(22.365 5.977)">
    <path id="Path_1351" data-name="Path 1351" d="M346.97,121.994a.983.983,0,0,0-.97-1v1.992A.983.983,0,0,0,346.97,121.994Z" transform="translate(-346 -120.998)" fill="#4b2746"/>
    <ellipse id="Ellipse_61" data-name="Ellipse 61" cx="1.516" cy="0.519" rx="1.516" ry="0.519" transform="translate(2.138 0.568)" fill="#4b2746"/>
  </g>
</svg>
