<svg xmlns="http://www.w3.org/2000/svg" width="25.761" height="39.051" viewBox="0 0 25.761 39.051">
  <g id="Group_179" data-name="Group 179" transform="translate(-478.355 -351.801)">
    <g id="owl" transform="translate(478.355 357.809)">
      <g id="Group_178" data-name="Group 178" transform="translate(5.887 28.937)">
        <path id="Path_1453" data-name="Path 1453" d="M93.085,449.294a.5.5,0,0,0-.5-.862,2.9,2.9,0,0,0-1.347,2.849.5.5,0,0,0,.494.434.529.529,0,0,0,.066,0,.5.5,0,0,0,.43-.56,1.909,1.909,0,0,1,.859-1.857Zm0,0" transform="translate(-91.209 -448.365)" fill="#ffa812"/>
        <path id="Path_1454" data-name="Path 1454" d="M115.653,456.881a.5.5,0,0,0-.7.075c-.009.011-.054.068-.119.162a.5.5,0,0,0-.8-.472,3.663,3.663,0,0,0-1.363,2.68.5.5,0,0,0,.5.492h.007a.5.5,0,0,0,.492-.506,2.655,2.655,0,0,1,.956-1.861,2.828,2.828,0,0,0-.32,2.35.5.5,0,1,0,.931-.36,2.224,2.224,0,0,1,.493-1.861A.5.5,0,0,0,115.653,456.881Zm0,0" transform="translate(-111.286 -456.014)" fill="#ffa812"/>
        <path id="Path_1455" data-name="Path 1455" d="M275.771,448.428a.5.5,0,1,0-.5.862,1.908,1.908,0,0,1,.86,1.857.5.5,0,0,0,.43.56.522.522,0,0,0,.066,0,.5.5,0,0,0,.494-.434,2.9,2.9,0,0,0-1.347-2.849Zm0,0" transform="translate(-263.158 -448.36)" fill="#ffa812"/>
        <path id="Path_1456" data-name="Path 1456" d="M239.208,456.651a.5.5,0,0,0-.8.474c-.066-.1-.111-.153-.12-.164a.5.5,0,0,0-.777.626c.008.01.81,1.038.492,1.86a.5.5,0,1,0,.931.359,2.828,2.828,0,0,0-.32-2.35,2.654,2.654,0,0,1,.956,1.861.5.5,0,0,0,.492.506h.007a.5.5,0,0,0,.5-.492A3.663,3.663,0,0,0,239.208,456.651Zm0,0" transform="translate(-227.968 -456.018)" fill="#ffa812"/>
      </g>
      <path id="Path_1457" data-name="Path 1457" d="M12.3,269.207h0a8.588,8.588,0,0,1-2.585-2.074h0s-4.477,8.472,2.946,9.854c-2.018-3.276-.359-7.78-.359-7.78Zm0,0" transform="translate(-7.837 -249.892)" fill="#dd8858"/>
      <path id="Path_1458" data-name="Path 1458" d="M8.437,330.984c-.277,2.368.36,5.013,4.228,5.734a6.5,6.5,0,0,1-.793-1.983,4.341,4.341,0,0,1-3.434-3.751Zm0,0" transform="translate(-7.84 -309.623)" fill="#d97f4a"/>
      <path id="Path_1459" data-name="Path 1459" d="M324.751,269.207h0a8.59,8.59,0,0,0,2.585-2.074h0s4.478,8.472-2.946,9.854c2.018-3.276.36-7.78.36-7.78Zm0,0" transform="translate(-303.455 -249.892)" fill="#dd8858"/>
      <path id="Path_1460" data-name="Path 1460" d="M325.184,334.739a6.5,6.5,0,0,1-.793,1.983c3.868-.721,4.5-3.365,4.228-5.733A4.341,4.341,0,0,1,325.184,334.739Zm0,0" transform="translate(-303.455 -309.627)" fill="#d97f4a"/>
      <path id="Path_1461" data-name="Path 1461" d="M76.726,299.273a17.822,17.822,0,0,1-8.415,1.708,17.82,17.82,0,0,1-8.415-1.708S55.8,310.4,68.311,310.4,76.726,299.273,76.726,299.273Zm0,0" transform="translate(-55.43 -279.958)" fill="#ad5e2e"/>
      <path id="Path_1462" data-name="Path 1462" d="M68.309,351.021c-6.887,0-8.741-3.37-9.017-6.4-.275,3.3.713,8.2,9.017,8.2s9.292-4.9,9.017-8.2C77.051,347.651,75.2,351.021,68.309,351.021Zm0,0" transform="translate(-55.429 -322.38)" fill="#a05528"/>
      <path id="Path_1463" data-name="Path 1463" d="M12.879,21.021c8.212,0,12.347-3.2,12.829-8.44a15.961,15.961,0,0,0-2.763-9.816A9.872,9.872,0,0,0,24.493.84.551.551,0,0,0,23.84.032a33.074,33.074,0,0,1-10.96,1.7A33.075,33.075,0,0,1,1.919.032.551.551,0,0,0,1.266.84,9.873,9.873,0,0,0,2.812,2.765,15.961,15.961,0,0,0,.05,12.581c.483,5.245,4.618,8.44,12.83,8.44Zm0,0" transform="translate(0.001 0.002)" fill="#dd8858"/>
      <path id="Path_1464" data-name="Path 1464" d="M25.714,163.815c-.483,5.245-4.618,8.441-12.829,8.441S.538,169.06.056,163.815c-.007-.076-.013-.153-.019-.229a12.494,12.494,0,0,0,.019,2.025c.482,5.245,4.617,8.44,12.829,8.44s12.347-3.2,12.829-8.44a12.551,12.551,0,0,0,.019-2.025Q25.724,163.7,25.714,163.815Zm0,0" transform="translate(-0.004 -153.028)" fill="#d97f4a"/>
      <path id="Path_1465" data-name="Path 1465" d="M60.739,69.946a5.533,5.533,0,0,0-6.44,2.121,5.533,5.533,0,0,0-6.44-2.121c-4.094,1.485-4.263,7.647-2.581,10.332a4.834,4.834,0,0,0,7.664.367,3.391,3.391,0,0,1-.247-1.237,1.606,1.606,0,1,1,3.207,0,3.391,3.391,0,0,1-.247,1.237,4.834,4.834,0,0,0,7.664-.367c1.682-2.685,1.514-8.847-2.581-10.332Zm0,0" transform="translate(-41.418 -65.096)" fill="#ffe9c8"/>
      <path id="Path_1466" data-name="Path 1466" d="M52.72,162.167a4.818,4.818,0,0,1-7.438-.6,7.384,7.384,0,0,1-.961-3.163,8.374,8.374,0,0,0,.961,4.959,4.834,4.834,0,0,0,7.664.367,3.39,3.39,0,0,1-.247-1.237,2.5,2.5,0,0,1,.02-.324Zm0,0" transform="translate(-41.423 -148.179)" fill="#ffdca7"/>
      <path id="Path_1467" data-name="Path 1467" d="M228.255,161.565a4.818,4.818,0,0,1-7.438.6,2.494,2.494,0,0,1,.02.324,3.391,3.391,0,0,1-.247,1.237,4.834,4.834,0,0,0,7.664-.367,8.375,8.375,0,0,0,.961-4.959,7.383,7.383,0,0,1-.961,3.163Zm0,0" transform="translate(-206.354 -148.179)" fill="#ffdca7"/>
      <path id="Path_1468" data-name="Path 1468" d="M177.938,197.147a1.606,1.606,0,1,0-3.207,0c0,1.16.718,2.5,1.6,2.5S177.938,198.307,177.938,197.147Zm0,0" transform="translate(-163.454 -182.835)" fill="#ffa812"/>
      <path id="Path_1469" data-name="Path 1469" d="M176.334,210.547c-.641,0-1.193-.7-1.45-1.531a2.061,2.061,0,0,0-.154.822c0,1.161.718,2.5,1.6,2.5s1.6-1.344,1.6-2.5a2.061,2.061,0,0,0-.154-.822c-.257.828-.809,1.531-1.45,1.531Zm0,0" transform="translate(-163.453 -195.526)" fill="#ff9a00"/>
      <path id="Path_1470" data-name="Path 1470" d="M98.709,138.188c-.783,0-1.4.8-1.4,1.825s.613,1.825,1.4,1.825,1.4-.8,1.4-1.825S99.492,138.188,98.709,138.188Zm0,0" transform="translate(-91.032 -129.269)" fill="#433f43"/>
      <path id="Path_1471" data-name="Path 1471" d="M259.959,138.188c-.783,0-1.4.8-1.4,1.825s.613,1.825,1.4,1.825,1.4-.8,1.4-1.825S260.742,138.188,259.959,138.188Zm0,0" transform="translate(-241.875 -129.269)" fill="#433f43"/>
    </g>
    <g id="icon-student-hat" transform="translate(478.999 351.801)">
      <path id="Path_1472" data-name="Path 1472" d="M167.046,404.078l-7.345-1.762v2.943c0,1.361,3.289,2.464,7.347,2.464s7.347-1.1,7.347-2.464c0-.011,0-.021,0-.032v-2.911Z" transform="translate(-154.735 -397.593)" fill="#04396e"/>
      <path id="Path_1473" data-name="Path 1473" d="M0,169.719l2.624.653.224-.333.964-.057.137.1-.827.137L3,170.467s-1.868,2.719-1.594,4.049a3.336,3.336,0,0,0,2.332,0l.31-3.637v-.3l1.735-.273-.123.21-1.294.293.6.149,7.345,1.574,7.345-1.574,4.966-1.236-12.311-3.3Z" transform="translate(0 -166.422)" fill="#04396e"/>
    </g>
  </g>
</svg>
