<svg xmlns="http://www.w3.org/2000/svg" width="58.391" height="46.834" viewBox="0 0 58.391 46.834">
  <g id="ticket" transform="translate(0 -50.667)">
    <path id="Path_1526" data-name="Path 1526" d="M56.445,91.034a2.881,2.881,0,0,1-2.92-1.825,3.18,3.18,0,0,1,.73-3.406l-.608-1.338a2.881,2.881,0,0,1-2.92-1.825,3.18,3.18,0,0,1,.73-3.406L50.849,77.9a2.881,2.881,0,0,1-2.92-1.825,3.18,3.18,0,0,1,.73-3.406l-.487-1.095a3.037,3.037,0,0,1-4.136-1.7L1.7,88.114A3.037,3.037,0,0,1,0,92.25l.487,1.095a2.881,2.881,0,0,1,2.92,1.825,3.18,3.18,0,0,1-.73,3.406l.608,1.338a2.881,2.881,0,0,1,2.92,1.825,3.18,3.18,0,0,1-.73,3.406l.608,1.338A2.881,2.881,0,0,1,9,108.308a3.18,3.18,0,0,1-.73,3.406l.487,1.095a3.037,3.037,0,0,1,4.136,1.7L55.228,96.386a3.037,3.037,0,0,1,1.7-4.136Z" transform="translate(0 -17.01)" fill="#497edf"/>
    <path id="Path_1527" data-name="Path 1527" d="M109.627,145.779,75.079,160.5l-6.812-16.058L102.815,129.6Zm-33.7,12.651,31.628-13.625-5.6-13.016L70.335,145.414Z" transform="translate(-60.482 -69.931)" fill="#ffd15c"/>
    <path id="Path_1533" data-name="Path 1533" d="M85.534,89.209a3.18,3.18,0,0,1,.73-3.406l-.608-1.338a2.881,2.881,0,0,1-2.92-1.825,3.18,3.18,0,0,1,.73-3.406L82.858,77.9a2.881,2.881,0,0,1-2.92-1.825,3.18,3.18,0,0,1,.73-3.406l-.487-1.095a3.037,3.037,0,0,1-4.136-1.7L36.267,86.9v.608l1.217.365a1.2,1.2,0,0,1,.852,1.095,1.066,1.066,0,0,1-.852,1.095l-1.217.365v4.258h1.946a1.35,1.35,0,0,1,1.338,1.338v1.825H83.1l4.258-1.825a3.037,3.037,0,0,1,1.7-4.136l-.487-.852A3.141,3.141,0,0,1,85.534,89.209Z" transform="translate(-32.131 -17.01)" fill="#231f20" opacity="0.1"/>
    <path id="Path_1537" data-name="Path 1537" d="M0,.144v6.4H2.5c1.439,0,2.284-.684,2.284-1.754A1.388,1.388,0,0,0,3.517,3.3V3.283A1.489,1.489,0,0,0,4.632,1.79C4.632.809,3.894.144,2.3.144ZM1.322,1.223h1c.728,0,1.043.234,1.043.764,0,.549-.333.791-1.106.791H1.322Zm0,2.6h.944c.845,0,1.178.261,1.178.836,0,.54-.324.8-1.142.8h-.98ZM8.436,0C6.556,0,5.405,1.268,5.405,3.346S6.556,6.691,8.436,6.691s3.031-1.268,3.031-3.346S10.316,0,8.436,0Zm0,1.169C9.47,1.169,10.1,2,10.1,3.346S9.47,5.522,8.436,5.522,6.772,4.695,6.772,3.346,7.4,1.169,8.436,1.169Zm9.605,5.378V.144H16.773V2.608c0,.926.027,1.853.072,2.779h-.018c-.36-.89-.764-1.79-1.169-2.644L14.417.144h-1.88v6.4h1.268V4.083c0-.926-.027-1.853-.072-2.779h.018c.36.89.764,1.79,1.169,2.644l1.241,2.6Zm6.512-6.4H23.231V4.056c0,.953-.432,1.466-1.223,1.466s-1.223-.513-1.223-1.466V.144H19.463V4.1a2.313,2.313,0,0,0,2.545,2.59A2.313,2.313,0,0,0,24.553,4.1ZM27.944,0c-1.4,0-2.365.773-2.365,1.9,0,1.4,1.1,1.691,2.3,2,.908.234,1.322.342,1.322.908,0,.5-.432.818-1.106.818-.818,0-1.241-.4-1.241-1.178H25.488c0,1.457,1,2.248,2.59,2.248,1.493,0,2.5-.809,2.5-2.024,0-1.394-1.043-1.709-2.248-2.006-1.007-.252-1.394-.414-1.394-.908,0-.414.4-.7.98-.7A.98.98,0,0,1,29.032,2.1h1.34C30.372.728,29.545,0,27.944,0Z" transform="translate(12.173 77.605) rotate(-22)" fill="#fff"/>
    <path id="Path_1534" data-name="Path 1534" d="M105.642,74.875a2.927,2.927,0,0,1,0-5.6V67.7a2.927,2.927,0,0,1,0-5.6v-1.46a2.927,2.927,0,0,1,0-5.6V53.83a3.221,3.221,0,0,1-3.163-3.163H56.5a3.221,3.221,0,0,1-3.163,3.163v1.095a2.884,2.884,0,0,1,2.068,2.8,3.339,3.339,0,0,1-2.068,2.92v1.581a2.927,2.927,0,0,1,0,5.6V69.4a2.927,2.927,0,0,1,0,5.6v1.095A3.221,3.221,0,0,1,56.5,79.254h45.983a3.221,3.221,0,0,1,3.163-3.163V74.875Z" transform="translate(-47.251 0)" fill="#497edf"/>
    <path id="Path_1535" data-name="Path 1535" d="M154.922,117.129H117.333v-17.4h37.589Zm-36.008-1.581h34.426V101.314H118.914Z" transform="translate(-103.952 -43.47)" fill="#ffd15c"/>
    <path id="Path_1536" data-name="Path 1536" d="M1.148-10.048v6.4h2.5c1.439,0,2.284-.684,2.284-1.754A1.388,1.388,0,0,0,4.665-6.891v-.018A1.489,1.489,0,0,0,5.78-8.4c0-.98-.737-1.646-2.329-1.646ZM2.47-8.969h1c.728,0,1.043.234,1.043.764,0,.549-.333.791-1.106.791H2.47Zm0,2.6h.944c.845,0,1.178.261,1.178.836,0,.54-.324.8-1.142.8H2.47Zm7.114-3.822c-1.88,0-3.031,1.268-3.031,3.346S7.7-3.5,9.584-3.5s3.031-1.268,3.031-3.346S11.464-10.192,9.584-10.192Zm0,1.169c1.034,0,1.664.827,1.664,2.176S10.618-4.67,9.584-4.67,7.92-5.5,7.92-6.846,8.55-9.023,9.584-9.023ZM19.19-3.645v-6.4H17.921v2.464c0,.926.027,1.853.072,2.779h-.018c-.36-.89-.764-1.79-1.169-2.644l-1.241-2.6h-1.88v6.4h1.268V-6.109c0-.926-.027-1.853-.072-2.779H14.9c.36.89.764,1.79,1.169,2.644l1.241,2.6Zm6.512-6.4H24.379v3.912c0,.953-.432,1.466-1.223,1.466s-1.223-.513-1.223-1.466v-3.912H20.611v3.957A2.313,2.313,0,0,0,23.156-3.5,2.313,2.313,0,0,0,25.7-6.091Zm3.391-.144c-1.4,0-2.365.773-2.365,1.9,0,1.4,1.1,1.691,2.3,2,.908.234,1.322.342,1.322.908,0,.5-.432.818-1.106.818-.818,0-1.241-.4-1.241-1.178H26.636c0,1.457,1,2.248,2.59,2.248,1.493,0,2.5-.809,2.5-2.024,0-1.394-1.043-1.709-2.248-2.006-1.007-.252-1.394-.414-1.394-.908,0-.414.4-.7.98-.7A.98.98,0,0,1,30.18-8.087h1.34C31.52-9.464,30.693-10.192,29.092-10.192Z" transform="translate(15.58 71.671)" fill="#fff"/>
  </g>
</svg>
