<svg id="trustly" xmlns="http://www.w3.org/2000/svg" width="103.652" height="31.147" viewBox="0 0 103.652 31.147">
  <g id="Group_92" data-name="Group 92" transform="translate(0)">
    <path id="Path_1276" data-name="Path 1276" d="M-113.053,193.513h-10.141v-2.342h0V191.1a5,5,0,0,1,5.079-4.924,5.008,5.008,0,0,1,5.079,4.924v.068l-.017,2.342Zm-1.676,4.718c0,.154,0,.274-.311.274h-1.589c-.173,0-.259.034-.259.205v5.3c0,.274-.155.342-.553.342h-1.572c-.432,0-.553-.034-.553-.342v-5.3c0-.171-.069-.205-.242-.205h-1.469c-.311,0-.311-.12-.311-.274v-1.3c0-.256.19-.291.5-.291h5.84c.311,0,.5.034.5.291C-114.729,196.932-114.729,198.231-114.729,198.231Zm7.965-4.718h-3.49v-2.171a7.76,7.76,0,0,0-7.878-7.642,7.76,7.76,0,0,0-7.878,7.642v.068h0v2.12h-3.49c-1.158,0-2.3.547-2.056,1.846l2.591,11.215a2.011,2.011,0,0,0,2.108,1.607h17.467a2.011,2.011,0,0,0,2.108-1.607l2.592-11.215c.225-1.3-.916-1.863-2.073-1.863Z" transform="translate(131.589 -183.7)" fill="#3c3"/>
  </g>
  <g id="Group_93" data-name="Group 93" transform="translate(5.028 25.096)">
    <path id="Path_1277" data-name="Path 1277" d="M-99.646,314.926a3.075,3.075,0,0,1-3.127,3.026,3.075,3.075,0,0,1-3.127-3.026,3.075,3.075,0,0,1,3.127-3.026,3.075,3.075,0,0,1,3.127,3.026" transform="translate(105.9 -311.9)" fill="#3c3"/>
  </g>
  <g id="Group_94" data-name="Group 94" transform="translate(15.613 25.096)">
    <path id="Path_1278" data-name="Path 1278" d="M-46.346,314.926a3.075,3.075,0,0,1-3.127,3.026,3.075,3.075,0,0,1-3.127-3.026,3.075,3.075,0,0,1,3.127-3.026,3.064,3.064,0,0,1,3.127,3.026" transform="translate(52.6 -311.9)" fill="#3c3"/>
  </g>
  <path id="Path_1279" data-name="Path 1279" d="M53.6,243.961H50.581c-.328,0-.466.068-.466.376v10.087c0,.513-.311.667-1.054.667H46.089c-.829,0-1.054-.085-1.054-.667V244.337c0-.325-.138-.376-.466-.376h-2.8c-.57,0-.57-.239-.57-.513v-2.479c0-.479.38-.547.95-.547H53.242c.57,0,.95.068.95.547v2.479c0,.274,0,.513-.587.513m8.967.325c.173,0,.466,0,.466.342v2.325a.423.423,0,0,1-.466.462,7.075,7.075,0,0,0-1.935.205,1.479,1.479,0,0,0-1.175,1.59V254c0,.513.017,1.077-.743,1.077H55.954c-.777,0-1.019-.427-1.019-.94v-7.471c0-1.248.536-2.359,3.127-2.359Zm4.838,10.822c-1.434,0-2.989-.65-2.989-3.214V245.38c0-.564.225-1.077.812-1.077h2.885a.947.947,0,0,1,1.019.838v5.214c0,.479.173,1.009.812,1.009a.844.844,0,0,0,.864-.957V245.4c0-.513-.017-1.077.743-1.077H74.32c.777,0,1.019.427,1.019.94v6.616c0,2.821-1.78,3.231-2.574,3.231Zm14.392.274a14.743,14.743,0,0,1-4.613-.65c-.207-.1-.4-2.94.225-2.8a10.265,10.265,0,0,0,2.937.359c.916,0,1.434-.12,1.434-.547,0-.274-.5-.479-1.123-.735-1.348-.564-3.438-1.351-3.438-3.71,0-2.428,2.833-3.385,5.563-3.385a8.364,8.364,0,0,1,3.127.342c.4.137-.017,2.667-.57,2.65-.38-.017-1.641-.239-2.315-.239-.708,0-1.019.12-1.019.462,0,.188.4.393,1.019.684,1.4.615,3.663,1.641,3.663,4.052-.017,3.111-2.92,3.522-4.889,3.522m12.888-8.086H93.428v4.342c0,.376.311.547.76.547a1.9,1.9,0,0,0,.311-.017c.311-.034.622,2.718.415,2.821a8.7,8.7,0,0,1-2.557.376c-2.73,0-3.473-1.71-3.49-2.906s0-5.231,0-5.231h-.674c-.518,0-.622-.325-.622-.821v-1.3c0-.564.19-.786.76-.786h.76v-1.4c0-.5.518-.769,1.019-.838l2.367-.376c.812-.12.812.154.812.718v1.915h1.3c.518,0,.657.479.657.974v1.145c0,.564,0,.838-.553.838m6,7.8H97.712c-.726,0-.812-.085-.812-.7V240.764a.557.557,0,0,1,.622-.564h2.954c.881,0,.95.256.95.7v13.266c0,.53.017.923-.743.923" transform="translate(-11.348 -230.591)" fill="#13120d"/>
  <g id="Group_95" data-name="Group 95" transform="translate(91.187 13.718)">
    <path id="Path_1280" data-name="Path 1280" d="M335.26,267.884c-.173.376-.553.8-.967.8H331.96c-.743,0-.847-.239-.639-.7l1.555-3.573-4.112-9.813c-.19-.462,0-.7.639-.7h3.369a1.162,1.162,0,0,1,.967.8l1.486,4.086,1.693-4.086a1.238,1.238,0,0,1,.967-.8h2.54c.743,0,.847.239.639.7C341.082,254.6,335.26,267.884,335.26,267.884Z" transform="translate(-328.694 -253.9)" fill="#13120d"/>
  </g>
</svg>
