<svg id="visa" xmlns="http://www.w3.org/2000/svg" width="42.906" height="42.458" viewBox="0 0 42.906 42.458">
  <ellipse id="Ellipse_42" data-name="Ellipse 42" cx="21.453" cy="21.228" rx="21.453" ry="21.228" transform="translate(0 0.002)" fill="#f3f2f2"/>
  <g id="Group_96" data-name="Group 96" transform="translate(7.127 15.555)">
    <path id="Path_1281" data-name="Path 1281" d="M175.483,184.965l1.642-9.592h2.658l-1.641,9.592Z" transform="translate(-166.725 -175.218)" fill="#293688"/>
    <path id="Path_1282" data-name="Path 1282" d="M229.218,174.05a6.967,6.967,0,0,0-2.382-.4c-2.627,0-4.477,1.3-4.493,3.166-.015,1.378,1.321,2.147,2.329,2.606,1.034.469,1.382.77,1.377,1.19-.006.643-.827.937-1.591.937a5.659,5.659,0,0,1-2.5-.5l-.342-.153-.373,2.147a8.533,8.533,0,0,0,2.961.512c2.794,0,4.608-1.286,4.628-3.277.01-1.091-.7-1.921-2.232-2.606-.929-.443-1.5-.739-1.492-1.189,0-.4.482-.825,1.522-.825a4.973,4.973,0,0,1,1.99.367l.238.111.361-2.079Z" transform="translate(-208.34 -173.647)" fill="#293688"/>
    <path id="Path_1283" data-name="Path 1283" d="M306,175.373a1.323,1.323,0,0,0-1.377.817l-3.939,8.775H303.5l.547-1.47h3.362l.312,1.47h2.5l-2.189-9.592H306Zm-1.208,6.2c.22-.552,1.059-2.681,1.059-2.681-.015.025.218-.555.353-.915l.18.827.615,2.77H304.8Z" transform="translate(-280.596 -175.218)" fill="#293688"/>
    <path id="Path_1284" data-name="Path 1284" d="M82.651,181.948l-.234-1.315a7.521,7.521,0,0,0-3.677-4.022l2.348,8.354H83.9l4.221-9.592H85.309Z" transform="translate(-78.739 -175.218)" fill="#293688"/>
  </g>
  <g id="Group_97" data-name="Group 97" transform="translate(2.416 15.71)">
    <path id="Path_1285" data-name="Path 1285" d="M46.823,175.373v.155a9.055,9.055,0,0,1,6.567,5.105l-.964-4.442a1.142,1.142,0,0,0-1.225-.818Z" transform="translate(-45.001 -175.373)" fill="#f7981d"/>
    <path id="Path_1286" data-name="Path 1286" d="M45.731,357.675a21.473,21.473,0,0,0,19.036-11.442H26.7A21.473,21.473,0,0,0,45.731,357.675Z" transform="translate(-26.696 -330.927)" fill="#f7981d"/>
  </g>
  <path id="Path_1287" data-name="Path 1287" d="M47.416,0A21.481,21.481,0,0,0,28.548,11.117H66.284A21.484,21.484,0,0,0,47.416,0Z" transform="translate(-25.964)" fill="#293688"/>
</svg>
